<?xml version="1.0" encoding="UTF-8" standalone="no"?>
<svg
   xmlns:dc="http://purl.org/dc/elements/1.1/"
   xmlns:cc="http://creativecommons.org/ns#"
   xmlns:rdf="http://www.w3.org/1999/02/22-rdf-syntax-ns#"
   xmlns:svg="http://www.w3.org/2000/svg"
   xmlns="http://www.w3.org/2000/svg"
   xmlns:sodipodi="http://sodipodi.sourceforge.net/DTD/sodipodi-0.dtd"
   xmlns:inkscape="http://www.inkscape.org/namespaces/inkscape"
   width="58.85688mm"
   height="53.012897mm"
   viewBox="0 0 58.856881 53.012898"
   version="1.1"
   id="svg8"
   inkscape:version="0.92.4 (5da689c313, 2019-01-14)"
   sodipodi:docname="SHPS_half_logo.svg">
  <defs
     id="defs2">
    <filter
       inkscape:label="3D Marble"
       inkscape:menu="Materials"
       inkscape:menu-tooltip="3D warped marble texture"
       height="1.5"
       y="-0.25"
       width="1.5"
       x="-0.25"
       style="color-interpolation-filters:sRGB"
       id="filter1414">
      <feGaussianBlur
         stdDeviation="4"
         result="result8"
         id="feGaussianBlur1386" />
      <feTurbulence
         seed="50"
         result="result7"
         type="turbulence"
         numOctaves="7"
         baseFrequency="0.01 0.01"
         id="feTurbulence1388" />
      <feColorMatrix
         result="result5"
         values="1 0 0 0 0 0 1 0 0 0 0 0 1 0 0 0 0 0 1.4 0 "
         id="feColorMatrix1390" />
      <feComposite
         result="result6"
         in="result5"
         operator="in"
         in2="result8"
         id="feComposite1392" />
      <feDisplacementMap
         in="result5"
         xChannelSelector="A"
         yChannelSelector="A"
         scale="100"
         result="result4"
         in2="result6"
         id="feDisplacementMap1394" />
      <feFlood
         flood-opacity="1"
         flood-color="rgb(224,224,224)"
         id="feFlood1396" />
      <feComposite
         result="result2"
         operator="atop"
         in2="result4"
         id="feComposite1398" />
      <feComposite
         in="result2"
         operator="atop"
         in2="SourceGraphic"
         result="result9"
         id="feComposite1400" />
      <feBlend
         result="fbSourceGraphic"
         mode="darken"
         in2="result9"
         id="feBlend1402" />
      <feGaussianBlur
         stdDeviation="5"
         in="fbSourceGraphic"
         result="result0"
         id="feGaussianBlur1404" />
      <feSpecularLighting
         in="result0"
         result="result1"
         lighting-color="#ffffff"
         surfaceScale="8"
         specularConstant="0.80000001"
         specularExponent="30"
         id="feSpecularLighting1408">
        <feDistantLight
           elevation="55"
           azimuth="235"
           id="feDistantLight1406" />
      </feSpecularLighting>
      <feComposite
         in2="fbSourceGraphic"
         in="result1"
         result="result2"
         operator="in"
         id="feComposite1410" />
      <feComposite
         in="fbSourceGraphic"
         result="result4"
         operator="arithmetic"
         k2="1"
         k3="1"
         in2="result2"
         id="feComposite1412"
         k1="0"
         k4="0" />
    </filter>
    <filter
       inkscape:label="3D Marble"
       inkscape:menu="Materials"
       inkscape:menu-tooltip="3D warped marble texture"
       height="1.5"
       y="-0.25"
       width="1.5"
       x="-0.25"
       style="color-interpolation-filters:sRGB"
       id="filter1444">
      <feGaussianBlur
         stdDeviation="4"
         result="result8"
         id="feGaussianBlur1416" />
      <feTurbulence
         seed="50"
         result="result7"
         type="turbulence"
         numOctaves="7"
         baseFrequency="0.01 0.01"
         id="feTurbulence1418" />
      <feColorMatrix
         result="result5"
         values="1 0 0 0 0 0 1 0 0 0 0 0 1 0 0 0 0 0 1.4 0 "
         id="feColorMatrix1420" />
      <feComposite
         result="result6"
         in="result5"
         operator="in"
         in2="result8"
         id="feComposite1422" />
      <feDisplacementMap
         in="result5"
         xChannelSelector="A"
         yChannelSelector="A"
         scale="100"
         result="result4"
         in2="result6"
         id="feDisplacementMap1424" />
      <feFlood
         flood-opacity="1"
         flood-color="rgb(224,224,224)"
         id="feFlood1426" />
      <feComposite
         result="result2"
         operator="atop"
         in2="result4"
         id="feComposite1428" />
      <feComposite
         in="result2"
         operator="atop"
         in2="SourceGraphic"
         result="result9"
         id="feComposite1430" />
      <feBlend
         result="fbSourceGraphic"
         mode="darken"
         in2="result9"
         id="feBlend1432" />
      <feGaussianBlur
         stdDeviation="5"
         in="fbSourceGraphic"
         result="result0"
         id="feGaussianBlur1434" />
      <feSpecularLighting
         in="result0"
         result="result1"
         lighting-color="#ffffff"
         surfaceScale="8"
         specularConstant="0.80000001"
         specularExponent="30"
         id="feSpecularLighting1438">
        <feDistantLight
           elevation="55"
           azimuth="235"
           id="feDistantLight1436" />
      </feSpecularLighting>
      <feComposite
         in2="fbSourceGraphic"
         in="result1"
         result="result2"
         operator="in"
         id="feComposite1440" />
      <feComposite
         in="fbSourceGraphic"
         result="result4"
         operator="arithmetic"
         k2="1"
         k3="1"
         in2="result2"
         id="feComposite1442"
         k1="0"
         k4="0" />
    </filter>
    <filter
       inkscape:label="3D Marble"
       inkscape:menu="Materials"
       inkscape:menu-tooltip="3D warped marble texture"
       height="1.5"
       y="-0.25"
       width="1.5"
       x="-0.25"
       style="color-interpolation-filters:sRGB"
       id="filter1474">
      <feGaussianBlur
         stdDeviation="4"
         result="result8"
         id="feGaussianBlur1446" />
      <feTurbulence
         seed="50"
         result="result7"
         type="turbulence"
         numOctaves="7"
         baseFrequency="0.01 0.01"
         id="feTurbulence1448" />
      <feColorMatrix
         result="result5"
         values="1 0 0 0 0 0 1 0 0 0 0 0 1 0 0 0 0 0 1.4 0 "
         id="feColorMatrix1450" />
      <feComposite
         result="result6"
         in="result5"
         operator="in"
         in2="result8"
         id="feComposite1452" />
      <feDisplacementMap
         in="result5"
         xChannelSelector="A"
         yChannelSelector="A"
         scale="100"
         result="result4"
         in2="result6"
         id="feDisplacementMap1454" />
      <feFlood
         flood-opacity="1"
         flood-color="rgb(224,224,224)"
         id="feFlood1456" />
      <feComposite
         result="result2"
         operator="atop"
         in2="result4"
         id="feComposite1458" />
      <feComposite
         in="result2"
         operator="atop"
         in2="SourceGraphic"
         result="result9"
         id="feComposite1460" />
      <feBlend
         result="fbSourceGraphic"
         mode="darken"
         in2="result9"
         id="feBlend1462" />
      <feGaussianBlur
         stdDeviation="5"
         in="fbSourceGraphic"
         result="result0"
         id="feGaussianBlur1464" />
      <feSpecularLighting
         in="result0"
         result="result1"
         lighting-color="#ffffff"
         surfaceScale="8"
         specularConstant="0.80000001"
         specularExponent="30"
         id="feSpecularLighting1468">
        <feDistantLight
           elevation="55"
           azimuth="235"
           id="feDistantLight1466" />
      </feSpecularLighting>
      <feComposite
         in2="fbSourceGraphic"
         in="result1"
         result="result2"
         operator="in"
         id="feComposite1470" />
      <feComposite
         in="fbSourceGraphic"
         result="result4"
         operator="arithmetic"
         k2="1"
         k3="1"
         in2="result2"
         id="feComposite1472"
         k1="0"
         k4="0" />
    </filter>
    <filter
       inkscape:label="3D Marble"
       inkscape:menu="Materials"
       inkscape:menu-tooltip="3D warped marble texture"
       height="1.5"
       y="-0.25"
       width="1.5"
       x="-0.25"
       style="color-interpolation-filters:sRGB"
       id="filter109">
      <feGaussianBlur
         stdDeviation="4"
         result="result8"
         id="feGaussianBlur81" />
      <feTurbulence
         seed="50"
         result="result7"
         type="turbulence"
         numOctaves="7"
         baseFrequency="0.01 0.01"
         id="feTurbulence83" />
      <feColorMatrix
         result="result5"
         values="1 0 0 0 0 0 1 0 0 0 0 0 1 0 0 0 0 0 1.4 0 "
         id="feColorMatrix85" />
      <feComposite
         result="result6"
         in="result5"
         operator="in"
         in2="result8"
         id="feComposite87" />
      <feDisplacementMap
         in="result5"
         xChannelSelector="A"
         yChannelSelector="A"
         scale="100"
         result="result4"
         in2="result6"
         id="feDisplacementMap89" />
      <feFlood
         flood-opacity="1"
         flood-color="rgb(224,224,224)"
         id="feFlood91" />
      <feComposite
         result="result2"
         operator="atop"
         in2="result4"
         id="feComposite93" />
      <feComposite
         in="result2"
         operator="atop"
         in2="SourceGraphic"
         result="result9"
         id="feComposite95" />
      <feBlend
         result="fbSourceGraphic"
         mode="darken"
         in2="result9"
         id="feBlend97" />
      <feGaussianBlur
         stdDeviation="5"
         in="fbSourceGraphic"
         result="result0"
         id="feGaussianBlur99" />
      <feSpecularLighting
         in="result0"
         result="result1"
         lighting-color="#ffffff"
         surfaceScale="8"
         specularConstant="0.80000001"
         specularExponent="30"
         id="feSpecularLighting103">
        <feDistantLight
           elevation="55"
           azimuth="235"
           id="feDistantLight101" />
      </feSpecularLighting>
      <feComposite
         in2="fbSourceGraphic"
         in="result1"
         result="result2"
         operator="in"
         id="feComposite105" />
      <feComposite
         in="fbSourceGraphic"
         result="result4"
         operator="arithmetic"
         k2="1"
         k3="1"
         in2="result2"
         id="feComposite107"
         k1="0"
         k4="0" />
    </filter>
  </defs>
  <sodipodi:namedview
     id="base"
     pagecolor="#ffffff"
     bordercolor="#666666"
     borderopacity="1.0"
     inkscape:pageopacity="0.0"
     inkscape:pageshadow="2"
     inkscape:zoom="2.1277698"
     inkscape:cx="83.903184"
     inkscape:cy="89.757377"
     inkscape:document-units="px"
     inkscape:current-layer="g3907"
     inkscape:document-rotation="0"
     showgrid="false"
     inkscape:window-width="1366"
     inkscape:window-height="745"
     inkscape:window-x="-8"
     inkscape:window-y="-8"
     inkscape:window-maximized="1"
     showborder="true"
     inkscape:snap-nodes="true"
     inkscape:snap-smooth-nodes="true"
     inkscape:snap-global="false"
     fit-margin-top="0"
     fit-margin-left="0"
     fit-margin-right="0"
     fit-margin-bottom="0"
     showguides="true"
     inkscape:guide-bbox="true" />
  <metadata
     id="metadata5">
    <rdf:RDF>
      <cc:Work
         rdf:about="">
        <dc:format>image/svg+xml</dc:format>
        <dc:type
           rdf:resource="http://purl.org/dc/dcmitype/StillImage" />
        <dc:title></dc:title>
      </cc:Work>
    </rdf:RDF>
  </metadata>
  <g
     inkscape:label="Layer 1"
     inkscape:groupmode="layer"
     id="layer1"
     transform="translate(214.17096,84.421724)">
    <g
       id="g191">
      <g
         id="g212"
         transform="matrix(8.6607151,0,0,8.6607151,-996.37181,-1207.9672)">
        <g
           id="g3907">
          <path
             id="path859"
             transform="matrix(0.03054983,0,0,0.03054983,90.315966,129.72895)"
             d="M 30.501953 0.001953125 C 30.503426 33.333407 30.50634 66.664639 30.507812 99.996094 C 31.297932 104.60823 24.389563 101.51521 21.466797 102.41211 C 14.311273 109.57254 7.1555237 116.73377 0 123.89453 C 2.8885599 128.90111 5.7772921 133.90749 8.6660156 138.91406 C 12.62031 142.34812 7.4231177 144.5759 5.3183594 147.21094 C 10.714266 151.35499 15.80227 155.92666 21.509766 159.64648 C 31.428251 166.96371 43.235379 170.68041 54.730469 174.72266 C 63.938476 178.65623 73.882224 179.92393 83.390625 182.84375 C 85.976564 184.70955 83.858819 190.08111 84.546875 193.36133 C 89.288964 195.2232 93.663068 197.84952 98.279297 199.98047 C 103.04316 200.45166 107.95949 200.26346 112.83984 200.2207 L 112.83984 0.001953125 L 30.501953 0.001953125 z "
             style="fill:#000000;fill-opacity:1;stroke:#ff0000;stroke-width:0;stroke-linecap:butt;stroke-linejoin:miter;stroke-miterlimit:4;stroke-dasharray:none;stroke-opacity:1" />
          <path
             id="path898"
             transform="matrix(0.03054983,0,0,0.03054983,90.315966,129.72895)"
             d="M 41.619141 6.9980469 L 41.619141 11.789062 L 41.619141 124.55859 L 110.375 157.70898 L 112.37109 156.77344 L 112.37109 146.73242 L 110.43164 147.64062 L 51.148438 119.05469 L 51.148438 17.066406 L 112.37109 17.380859 L 112.37109 7.3574219 L 41.619141 6.9980469 z "
             style="color:#000000;font-style:normal;font-variant:normal;font-weight:normal;font-stretch:normal;font-size:medium;line-height:normal;font-family:sans-serif;font-variant-ligatures:normal;font-variant-position:normal;font-variant-caps:normal;font-variant-numeric:normal;font-variant-alternates:normal;font-variant-east_asian:normal;font-feature-settings:normal;text-indent:0;text-align:start;text-decoration:none;text-decoration-line:none;text-decoration-style:solid;text-decoration-color:#000000;letter-spacing:normal;word-spacing:normal;text-transform:none;writing-mode:lr-tb;direction:ltr;text-orientation:mixed;dominant-baseline:auto;baseline-shift:baseline;text-anchor:start;white-space:normal;shape-padding:0;clip-rule:nonzero;display:inline;overflow:visible;visibility:visible;isolation:auto;mix-blend-mode:normal;color-interpolation:sRGB;color-interpolation-filters:linearRGB;solid-color:#000000;solid-opacity:1;vector-effect:none;fill:#999999;fill-opacity:1;fill-rule:nonzero;stroke:none;stroke-width:5.85260296;stroke-linecap:butt;stroke-linejoin:miter;stroke-miterlimit:4;stroke-dasharray:none;stroke-dashoffset:0;stroke-opacity:1;color-rendering:auto;image-rendering:auto;shape-rendering:auto;text-rendering:auto;enable-background:accumulate" />
          <path
             style="fill:#999999;stroke:none;stroke-width:0.56882483;stroke-linecap:butt;stroke-linejoin:miter;stroke-miterlimit:4;stroke-dasharray:none;stroke-opacity:1"
             d="M 105.74219 45.978516 L 105.78906 50.226562 L 112.83984 50.226562 L 112.83984 45.978516 L 105.74219 45.978516 z M 104.11719 53.636719 L 104.17773 57.886719 L 112.83984 57.886719 L 112.83984 53.636719 L 104.11719 53.636719 z M 101.27539 61.294922 L 101.35938 66.369141 L 112.83984 66.369141 L 112.83984 61.294922 L 101.27539 61.294922 z M 99.853516 69.777344 L 99.949219 75.466797 L 112.83984 75.466797 L 112.83984 69.777344 L 99.853516 69.777344 z M 97.009766 78.875 L 97.130859 86.146484 L 112.83984 86.146484 L 112.83984 78.875 L 97.009766 78.875 z M 94.166016 89.554688 L 94.3125 99.511719 L 112.83984 99.511719 L 112.83984 89.554688 L 94.166016 89.554688 z M 85.636719 102.91992 L 85.855469 114.30078 L 112.83984 114.30078 L 112.83984 102.91992 L 85.636719 102.91992 z "
             transform="matrix(0.03054983,0,0,0.03054983,90.315966,129.72895)"
             id="path20" />
          <path
             style="fill:none;stroke:#999999;stroke-width:2.36451435;stroke-miterlimit:4;stroke-dasharray:none;stroke-opacity:0.99598401"
             d="M 29.533203 110.71094 C 29.147117 110.72822 28.753005 110.78733 28.357422 110.89453 C 26.503048 111.39829 23.566458 113.52253 23.5625 113.52539 C 24.319607 114.47721 25.141943 115.66552 25.96875 116.9707 L 27.742188 119.50781 L 29.339844 122.96289 C 29.339844 122.96289 33.345854 120.81715 34.552734 119.1543 C 35.759943 117.4898 35.579539 116.27263 35.324219 114.77344 C 35.067916 113.27327 32.65625 111.40039 32.65625 111.40039 C 31.782464 110.97076 30.691463 110.65908 29.533203 110.71094 z M 25.96875 116.9707 L 23.560547 113.52539 L 22.792969 114.25977 L 11.625 124.76953 C 15.820245 130.81146 19.292311 138.5703 21.144531 144.74219 C 24.676663 140.75068 28.517965 137.16942 32.238281 133.55859 L 32.566406 133.22266 L 32.498047 132.75781 C 31.804956 127.7432 28.845212 121.51143 25.96875 116.9707 z M 32.238281 133.55859 C 28.838688 137.07133 25.291304 141.652 21.941406 145.31836 C 25.092813 147.6289 28.410279 149.70142 31.734375 151.75195 C 37.693525 155.93037 44.561869 158.4476 51.451172 160.62109 C 61.929235 164.78478 73.05658 167.02841 83.492188 171.30273 C 88.006321 173.46772 93.135437 175.33155 96.1875 179.53125 C 98.068362 180.96857 98.345419 187.77173 101.04102 185.61133 C 101.52252 181.35729 103.08 177.32032 103.68164 173.08789 C 104.99608 166.97263 100.64025 161.37544 95.689453 158.35742 C 83.143359 152.01074 69.46103 148.43937 56.240234 143.8125 C 47.525815 141.39317 39.970437 138.22801 32.238281 133.55859 z M 21.941406 145.31836 C 21.676962 145.12447 21.406427 144.93972 21.144531 144.74219 L 21.851562 145.41992 C 21.881077 145.38773 21.91186 145.3507 21.941406 145.31836 z M 103.68164 173.50781 L 101.04102 186.0332 L 112.32422 186.0332 L 112.32422 173.50781 L 103.68164 173.50781 z "
             transform="matrix(0.03054983,0,0,0.03054983,90.315966,129.72895)"
             id="rect873" />
          <path
             id="path62"
             style="font-style:normal;font-variant:normal;font-weight:bold;font-stretch:normal;font-size:3.43958px;line-height:12.4383px;font-family:'Univers 67 Condensed Bold';-inkscape-font-specification:'Univers 67 Condensed Bold, Bold';font-variant-ligatures:normal;font-variant-caps:normal;font-variant-numeric:normal;font-variant-east-asian:normal;letter-spacing:-0.178162px;fill:#999999;stroke-width:0.0861665"
             d="m 92.564568,130.91856 q 0.01266,0.0485 0.0043,0.0817 -0.0085,0.0326 -0.03014,0.0545 -0.02112,0.0211 -0.05118,0.0334 -0.02988,0.013 -0.05964,0.0208 -0.04845,0.0127 -0.08233,0.007 -0.0332,-0.005 -0.0549,-0.0234 -0.02188,-0.0187 -0.03432,-0.0465 -0.01263,-0.0285 -0.01904,-0.0616 l 0.104504,-0.0273 q 0.0047,0.018 0.01025,0.0336 0.0055,0.0156 0.01435,0.0266 0.0086,0.0103 0.02218,0.0142 0.01425,0.004 0.03572,-0.002 0.0263,-0.007 0.03547,-0.0255 0.009,-0.0194 0.0023,-0.045 -0.0058,-0.0222 -0.02604,-0.0346 -0.01956,-0.0127 -0.04689,-0.021 -0.02751,-0.009 -0.0583,-0.0166 -0.03097,-0.008 -0.05956,-0.0214 -0.02877,-0.0139 -0.05156,-0.0361 -0.0221,-0.0223 -0.03186,-0.0597 -0.0076,-0.0291 -0.0067,-0.0567 0.0016,-0.0278 0.01542,-0.0514 0.01361,-0.0243 0.04257,-0.0437 0.02894,-0.0194 0.0767,-0.0319 0.07613,-0.0199 0.122212,0.006 0.04677,0.0263 0.06235,0.10577 l -0.101736,0.0266 q -0.0036,-0.0138 -0.0091,-0.0265 -0.005,-0.0135 -0.01323,-0.0224 -0.0077,-0.01 -0.01905,-0.0135 -0.01082,-0.005 -0.02672,-5.3e-4 -0.02561,0.007 -0.03652,0.0243 -0.01041,0.0168 -0.0035,0.0431 0.0062,0.0236 0.02571,0.0362 0.02026,0.0125 0.0474,0.0202 0.02715,0.008 0.05793,0.0152 0.03061,0.007 0.0592,0.02 0.02841,0.0126 0.05069,0.0356 0.02279,0.0222 0.03309,0.0616 z" />
          <path
             id="path64"
             style="font-style:normal;font-variant:normal;font-weight:bold;font-stretch:normal;font-size:3.43958px;line-height:12.4383px;font-family:'Univers 67 Condensed Bold';-inkscape-font-specification:'Univers 67 Condensed Bold, Bold';font-variant-ligatures:normal;font-variant-caps:normal;font-variant-numeric:normal;font-variant-east-asian:normal;letter-spacing:-0.178162px;fill:#999999;stroke-width:0.0861665"
             d="m 92.887389,130.47344 0.06739,0.36023 q 0.0054,0.0288 0.0016,0.0587 -0.0033,0.029 -0.01948,0.0554 -0.0156,0.0255 -0.04602,0.0458 -0.03055,0.0196 -0.07906,0.0286 -0.08789,0.0165 -0.138674,-0.0177 -0.05008,-0.0343 -0.06351,-0.10607 l -0.06739,-0.36024 0.106167,-0.0199 0.06608,0.3532 q 0.0088,0.0471 0.03022,0.0643 0.02196,0.0163 0.0515,0.0107 0.03515,-0.007 0.04711,-0.0321 0.01197,-0.0255 0.0041,-0.0678 l -0.06608,-0.35319 z" />
          <path
             id="path66"
             style="font-style:normal;font-variant:normal;font-weight:bold;font-stretch:normal;font-size:3.43958px;line-height:12.4383px;font-family:'Univers 67 Condensed Bold';-inkscape-font-specification:'Univers 67 Condensed Bold, Bold';font-variant-ligatures:normal;font-variant-caps:normal;font-variant-numeric:normal;font-variant-east-asian:normal;letter-spacing:-0.178162px;fill:#999999;stroke-width:0.0861665"
             d="m 93.033625,130.97296 -0.05219,-0.51416 0.145174,-0.0148 0.172782,0.34218 0.0014,-1.1e-4 -0.03615,-0.35607 0.100341,-0.0102 0.05219,0.51416 -0.141616,0.0144 -0.178363,-0.36175 -0.0014,1.1e-4 0.03817,0.37601 z" />
          <path
             style="font-style:normal;font-variant:normal;font-weight:bold;font-stretch:normal;font-size:3.43957996px;line-height:12.43830013px;font-family:'Univers 67 Condensed Bold';-inkscape-font-specification:'Univers 67 Condensed Bold, Bold';font-variant-ligatures:normal;font-variant-caps:normal;font-variant-numeric:normal;font-variant-east_asian:normal;letter-spacing:-0.17816199px;fill:#999999;stroke-width:2.8205235"
             d="M 101.92969 22.285156 L 105.52539 39.228516 L 109.36523 39.261719 L 112.32422 27.234375 L 112.32422 22.373047 L 110.47461 22.357422 L 107.70117 34.212891 L 107.6543 34.210938 L 105.55859 22.3125 L 101.92969 22.285156 z "
             transform="matrix(0.03054983,0,0,0.03054983,90.315966,129.72895)"
             id="path68" />
          <path
             id="path152"
             style="font-style:normal;font-variant:normal;font-weight:normal;font-stretch:normal;font-size:1.73138px;line-height:5.28983px;font-family:'Univers 67 Condensed Bold';-inkscape-font-specification:'Univers 67 Condensed Bold, Normal';font-variant-ligatures:normal;font-variant-caps:normal;font-variant-numeric:normal;font-variant-east-asian:normal;fill:#999999;stroke-width:0.0309671"
             d="m 93.625041,135.15229 h -5.36e-4 l -0.02136,0.0967 h 0.04458 z m -0.09008,0.1806 0.06191,-0.22366 h 0.0616 l 0.06068,0.22366 h -0.04922 l -0.01239,-0.0496 h -0.06377 l -0.0127,0.0496 z" />
          <path
             id="path154"
             style="font-style:normal;font-variant:normal;font-weight:normal;font-stretch:normal;font-size:1.73138px;line-height:5.28983px;font-family:'Univers 67 Condensed Bold';-inkscape-font-specification:'Univers 67 Condensed Bold, Normal';font-variant-ligatures:normal;font-variant-caps:normal;font-variant-numeric:normal;font-variant-east-asian:normal;fill:#999999;stroke-width:0.0309671"
             d="m 93.742055,135.10923 h 0.07801 q 0.02291,0 0.03715,0.007 0.01425,0.007 0.02198,0.0217 0.008,0.0142 0.01084,0.035 0.0028,0.0205 0.0028,0.0465 0,0.009 0,0.0204 0,0.0115 -0.0016,0.0242 -0.0016,0.0127 -0.0059,0.0251 -0.004,0.0121 -0.0124,0.0217 -0.0084,0.01 -0.02167,0.0158 -0.01331,0.006 -0.03312,0.006 h -0.07615 z m 0.04675,0.18928 h 0.0226 q 0.01054,0 0.01703,-0.004 0.0068,-0.004 0.01054,-0.0136 0.0037,-0.009 0.005,-0.0238 0.0016,-0.0149 0.0016,-0.0359 0,-0.0155 -5.37e-4,-0.0294 -3.57e-4,-0.0139 -0.0034,-0.0245 -0.0031,-0.0108 -0.0099,-0.017 -0.0065,-0.007 -0.01857,-0.007 h -0.02415 z" />
          <path
             id="path130"
             style="font-style:normal;font-variant:normal;font-weight:normal;font-stretch:normal;font-size:2.17177px;line-height:5.17534px;font-family:'Univers 67 Condensed Bold';-inkscape-font-specification:'Univers 67 Condensed Bold, Normal';font-variant-ligatures:normal;font-variant-caps:normal;font-variant-numeric:normal;font-variant-east-asian:normal;fill:#999999;stroke-width:0.0388305"
             d="m 91.389992,134.30177 0.08333,-0.26197 0.05618,0.0206 -0.06948,0.21843 0.08409,0.0309 -0.01385,0.0435 z" />
          <path
             id="path132"
             style="font-style:normal;font-variant:normal;font-weight:normal;font-stretch:normal;font-size:2.17177px;line-height:5.17534px;font-family:'Univers 67 Condensed Bold';-inkscape-font-specification:'Univers 67 Condensed Bold, Normal';font-variant-ligatures:normal;font-variant-caps:normal;font-variant-numeric:normal;font-variant-east-asian:normal;fill:#999999;stroke-width:0.0388305"
             d="m 91.709917,134.18305 -6.79e-4,-1.8e-4 -0.06168,0.10378 0.05358,0.0197 z m -0.175562,0.17176 0.157747,-0.23463 0.07404,0.0272 -0.0104,0.28876 -0.05916,-0.0217 0.0036,-0.0635 -0.07665,-0.0282 -0.03371,0.0524 z" />
          <path
             id="path134"
             style="font-style:normal;font-variant:normal;font-weight:normal;font-stretch:normal;font-size:2.17177px;line-height:5.17534px;font-family:'Univers 67 Condensed Bold';-inkscape-font-specification:'Univers 67 Condensed Bold, Normal';font-variant-ligatures:normal;font-variant-caps:normal;font-variant-numeric:normal;font-variant-east-asian:normal;fill:#999999;stroke-width:0.0388305"
             d="m 91.7829,134.44612 0.08333,-0.26197 0.09972,0.0366 q 0.016,0.006 0.02921,0.014 0.0137,0.008 0.0217,0.0193 0.0085,0.0112 0.01016,0.0268 0.0022,0.0154 -0.0045,0.0364 -0.0073,0.0229 -0.02365,0.0339 -0.016,0.0111 -0.04046,0.007 l -2.15e-4,7.1e-4 q 0.0142,0.008 0.02213,0.0166 0.0079,0.009 0.01075,0.0197 0.0032,0.0109 0.0018,0.023 -0.0013,0.012 -0.0056,0.0255 -0.0053,0.0167 -0.01347,0.0267 -0.0082,0.01 -0.01802,0.0149 -0.0095,0.005 -0.02019,0.006 -0.01031,10e-4 -0.02031,-1.7e-4 -0.01,-0.001 -0.01879,-0.004 -0.0083,-0.003 -0.01424,-0.005 z m 0.105466,-0.13429 0.03758,0.0138 q 0.0045,0.002 0.01016,0.002 0.0058,9e-5 0.01141,-0.002 0.0057,-0.002 0.01042,-0.008 0.0051,-0.005 0.0081,-0.0149 0.0046,-0.0145 -0.0017,-0.0274 -0.0059,-0.0127 -0.02007,-0.0179 l -0.0346,-0.0127 z m -0.03647,0.11466 0.03125,0.0115 q 0.0045,0.002 0.0109,0.004 0.0069,0.002 0.01403,3.6e-4 0.0075,-0.001 0.01426,-0.007 0.0069,-0.006 0.01128,-0.0198 0.0055,-0.0174 4.65e-4,-0.0302 -0.0046,-0.013 -0.02579,-0.0208 l -0.03274,-0.012 z" />
          <path
             id="path136"
             style="font-style:normal;font-variant:normal;font-weight:normal;font-stretch:normal;font-size:2.17177px;line-height:5.17534px;font-family:'Univers 67 Condensed Bold';-inkscape-font-specification:'Univers 67 Condensed Bold, Normal';font-variant-ligatures:normal;font-variant-caps:normal;font-variant-numeric:normal;font-variant-east-asian:normal;fill:#999999;stroke-width:0.0388305"
             d="m 92.098149,134.5668 q -0.0346,-0.0127 -0.05,-0.0309 -0.01528,-0.0186 -0.01784,-0.0406 -0.0024,-0.0224 0.0038,-0.0472 0.0062,-0.0249 0.01438,-0.0506 0.0083,-0.0261 0.01758,-0.0499 0.0093,-0.0237 0.02377,-0.0395 0.01454,-0.0157 0.03711,-0.02 0.02267,-0.005 0.05727,0.008 0.0346,0.0127 0.04989,0.0313 0.01538,0.0182 0.01795,0.0402 0.0026,0.022 -0.0037,0.0469 -0.0062,0.0249 -0.01449,0.051 -0.0082,0.0258 -0.01746,0.0495 -0.0093,0.0237 -0.02389,0.0399 -0.01454,0.0157 -0.03723,0.0204 -0.02255,0.004 -0.05716,-0.008 z m 0.01245,-0.0392 q 0.01191,0.004 0.02071,0.002 0.0089,-0.003 0.01633,-0.0135 0.0074,-0.0103 0.01429,-0.028 0.0071,-0.0181 0.01504,-0.0431 0.008,-0.025 0.01254,-0.0436 0.0047,-0.019 0.0048,-0.0319 -2.3e-5,-0.013 -0.0054,-0.021 -0.0052,-0.008 -0.01712,-0.0128 -0.01191,-0.004 -0.02083,-0.001 -0.0088,0.003 -0.0162,0.0131 -0.0074,0.0103 -0.01442,0.0283 -0.007,0.0177 -0.01493,0.0427 -0.008,0.025 -0.01266,0.044 -0.0046,0.0186 -0.0046,0.0315 2.5e-5,0.013 0.0053,0.0214 0.0053,0.008 0.01724,0.0124 z" />
          <path
             id="path138"
             style="font-style:normal;font-variant:normal;font-weight:normal;font-stretch:normal;font-size:2.17177px;line-height:5.17534px;font-family:'Univers 67 Condensed Bold';-inkscape-font-specification:'Univers 67 Condensed Bold, Normal';font-variant-ligatures:normal;font-variant-caps:normal;font-variant-numeric:normal;font-variant-east-asian:normal;fill:#999999;stroke-width:0.0388305"
             d="m 92.291895,134.63312 -0.05618,-0.0206 0.08333,-0.26197 0.103807,0.0381 q 0.02902,0.0107 0.04023,0.0342 0.01159,0.0237 8.95e-4,0.0574 -0.008,0.025 -0.02504,0.0382 -0.01671,0.0133 -0.04525,0.008 l -1.79e-4,7.2e-4 q 0.0043,0.002 0.01197,0.007 0.0077,0.005 0.01392,0.0124 0.0066,0.008 0.0093,0.0204 0.0028,0.012 -0.0028,0.0298 -0.002,0.006 -0.0055,0.0174 -0.0032,0.0114 -0.0062,0.0237 -0.0031,0.0122 -0.0052,0.0228 -0.0016,0.0107 -0.0011,0.0154 l -0.05507,-0.0202 q -0.0018,-0.014 0.002,-0.0272 0.0042,-0.0131 0.0082,-0.0258 0.0037,-0.0116 0.0067,-0.0223 0.0033,-0.0105 0.0021,-0.0195 -7.16e-4,-0.009 -0.0079,-0.0171 -0.0067,-0.008 -0.02269,-0.0136 l -0.01451,-0.005 z m 0.04732,-0.14876 0.02493,0.009 q 0.0082,0.003 0.01492,0.001 0.0067,-0.002 0.01182,-0.006 0.0052,-0.005 0.0085,-0.011 0.0037,-0.006 0.0057,-0.0125 0.006,-0.0189 5.37e-4,-0.0293 -0.0049,-0.0107 -0.01829,-0.0156 l -0.02493,-0.009 z" />
          <path
             id="path140"
             style="font-style:normal;font-variant:normal;font-weight:normal;font-stretch:normal;font-size:2.17177px;line-height:5.17534px;font-family:'Univers 67 Condensed Bold';-inkscape-font-specification:'Univers 67 Condensed Bold, Normal';font-variant-ligatures:normal;font-variant-caps:normal;font-variant-numeric:normal;font-variant-east-asian:normal;fill:#999999;stroke-width:0.0388305"
             d="m 92.598798,134.50962 -7.16e-4,-1.8e-4 -0.06168,0.10377 0.05358,0.0197 z m -0.175562,0.17175 0.157746,-0.23463 0.07404,0.0272 -0.01041,0.28877 -0.05916,-0.0217 0.0036,-0.0635 -0.07665,-0.0282 -0.03373,0.0524 z" />
          <path
             id="path142"
             style="font-style:normal;font-variant:normal;font-weight:normal;font-stretch:normal;font-size:2.17177px;line-height:5.17534px;font-family:'Univers 67 Condensed Bold';-inkscape-font-specification:'Univers 67 Condensed Bold, Normal';font-variant-ligatures:normal;font-variant-caps:normal;font-variant-numeric:normal;font-variant-east-asian:normal;fill:#999999;stroke-width:0.0388305"
             d="m 92.892034,134.56102 -0.01384,0.0435 -0.06251,-0.023 -0.06948,0.21843 -0.05618,-0.0206 0.06948,-0.21843 -0.06251,-0.023 0.01384,-0.0435 z" />
          <path
             id="path144"
             style="font-style:normal;font-variant:normal;font-weight:normal;font-stretch:normal;font-size:2.17177px;line-height:5.17534px;font-family:'Univers 67 Condensed Bold';-inkscape-font-specification:'Univers 67 Condensed Bold, Normal';font-variant-ligatures:normal;font-variant-caps:normal;font-variant-numeric:normal;font-variant-east-asian:normal;fill:#999999;stroke-width:0.0388305"
             d="m 92.834749,134.83256 0.08333,-0.26197 0.146594,0.0538 -0.01281,0.0403 -0.09042,-0.0332 -0.02054,0.0646 0.08335,0.0306 -0.01282,0.0403 -0.08335,-0.0306 -0.02435,0.0766 0.09339,0.0343 -0.01282,0.0403 z" />
          <path
             id="path115"
             style="font-style:normal;font-variant:normal;font-weight:normal;font-stretch:normal;font-size:2.15278px;line-height:5.13003px;font-family:'Univers 67 Condensed Bold';-inkscape-font-specification:'Univers 67 Condensed Bold, Normal';font-variant-ligatures:normal;font-variant-caps:normal;font-variant-numeric:normal;font-variant-east-asian:normal;white-space:pre;fill:#999999;stroke-width:0.0374795"
             d="m 92.211407,133.37249 0.119998,-0.24232 0.08175,0.0403 -0.04359,0.18353 7.15e-4,3.6e-4 0.121975,-0.1449 0.07906,0.039 -0.119996,0.24233 -0.04945,-0.0244 0.09257,-0.18695 -5.37e-4,-3.5e-4 -0.139336,0.1639 -0.04845,-0.0239 0.04817,-0.20884 -7.15e-4,-3.5e-4 -0.09257,0.18694 z" />
          <path
             id="path117"
             style="font-style:normal;font-variant:normal;font-weight:normal;font-stretch:normal;font-size:2.15278px;line-height:5.13003px;font-family:'Univers 67 Condensed Bold';-inkscape-font-specification:'Univers 67 Condensed Bold, Normal';font-variant-ligatures:normal;font-variant-caps:normal;font-variant-numeric:normal;font-variant-east-asian:normal;white-space:pre;fill:#999999;stroke-width:0.0374795"
             d="m 92.668944,133.35457 -5.37e-4,-3.5e-4 -0.07507,0.0933 0.04845,0.0239 z m -0.194793,0.14743 0.187281,-0.20917 0.06695,0.033 -0.05406,0.27482 -0.05349,-0.0264 0.01313,-0.0603 -0.0693,-0.0342 -0.04039,0.0469 z" />
          <path
             id="path119"
             style="font-style:normal;font-variant:normal;font-weight:normal;font-stretch:normal;font-size:2.15278px;line-height:5.13003px;font-family:'Univers 67 Condensed Bold';-inkscape-font-specification:'Univers 67 Condensed Bold, Normal';font-variant-ligatures:normal;font-variant-caps:normal;font-variant-numeric:normal;font-variant-east-asian:normal;white-space:pre;fill:#999999;stroke-width:0.0374795"
             d="m 92.942676,133.43145 -0.01995,0.0403 -0.05652,-0.0279 -0.100053,0.20205 -0.0508,-0.025 0.100054,-0.20205 -0.05652,-0.0279 0.01994,-0.0403 z" />
          <path
             id="path121"
             style="font-style:normal;font-variant:normal;font-weight:normal;font-stretch:normal;font-size:2.15278px;line-height:5.13003px;font-family:'Univers 67 Condensed Bold';-inkscape-font-specification:'Univers 67 Condensed Bold, Normal';font-variant-ligatures:normal;font-variant-caps:normal;font-variant-numeric:normal;font-variant-east-asian:normal;white-space:pre;fill:#999999;stroke-width:0.0374795"
             d="m 93.028875,133.59461 0.04803,-0.097 0.0508,0.025 -0.119997,0.24232 -0.0508,-0.025 0.05352,-0.10808 -0.0582,-0.0287 -0.05352,0.10807 -0.0508,-0.025 0.119996,-0.24232 0.0508,0.025 -0.04803,0.097 z" />
          <path
             id="path123"
             style="font-style:normal;font-variant:normal;font-weight:normal;font-stretch:normal;font-size:2.15278px;line-height:5.13003px;font-family:'Univers 67 Condensed Bold';-inkscape-font-specification:'Univers 67 Condensed Bold, Normal';font-variant-ligatures:normal;font-variant-caps:normal;font-variant-numeric:normal;font-variant-east-asian:normal;white-space:pre;fill:#999999;stroke-width:0.0374795"
             d="m 93.235236,133.79486 q -0.01163,0.0235 -0.02635,0.0338 -0.01454,0.01 -0.03065,0.0112 -0.0156,0.001 -0.03174,-0.004 -0.01631,-0.005 -0.03077,-0.0122 -0.02355,-0.0116 -0.03519,-0.0253 -0.0113,-0.0135 -0.01374,-0.0281 -0.0023,-0.0149 0.0024,-0.0301 0.0048,-0.0156 0.01356,-0.0309 l 0.0508,0.025 q -0.0043,0.009 -0.0075,0.0168 -0.0032,0.008 -0.0035,0.0154 -1.38e-4,0.007 0.0039,0.0132 0.0044,0.006 0.01483,0.0115 0.01279,0.006 0.02283,0.002 0.01021,-0.005 0.01637,-0.017 0.0053,-0.0107 0.0016,-0.0226 -0.0034,-0.0117 -0.01136,-0.0244 -0.0078,-0.013 -0.01742,-0.0265 -0.0095,-0.0139 -0.01626,-0.0289 -0.0066,-0.0154 -0.008,-0.0319 -0.0011,-0.0164 0.0079,-0.0345 0.007,-0.0141 0.01683,-0.0247 0.01018,-0.0104 0.02375,-0.015 0.01374,-0.005 0.03187,-0.003 0.01813,0.002 0.04135,0.0137 0.03701,0.0182 0.04619,0.0445 0.0095,0.0264 -0.01161,0.0632 l -0.04945,-0.0244 q 0.0033,-0.007 0.0055,-0.0136 0.0027,-0.007 0.0024,-0.0134 3.58e-4,-0.007 -0.0029,-0.0119 -0.0027,-0.006 -0.01044,-0.009 -0.01245,-0.006 -0.02284,-0.003 -0.0099,0.003 -0.0162,0.0158 -0.0057,0.0114 -0.0022,0.0231 0.0037,0.0119 0.01186,0.0242 0.0081,0.0124 0.01774,0.0259 0.0098,0.0132 0.01658,0.0282 0.007,0.0147 0.0079,0.0314 0.0014,0.0166 -0.008,0.0357 z" />
        </g>
      </g>
    </g>
  </g>
</svg>
