<?xml version="1.0" encoding="UTF-8" standalone="no"?>
<svg
   xmlns:dc="http://purl.org/dc/elements/1.1/"
   xmlns:cc="http://creativecommons.org/ns#"
   xmlns:rdf="http://www.w3.org/1999/02/22-rdf-syntax-ns#"
   xmlns:svg="http://www.w3.org/2000/svg"
   xmlns="http://www.w3.org/2000/svg"
   xmlns:sodipodi="http://sodipodi.sourceforge.net/DTD/sodipodi-0.dtd"
   xmlns:inkscape="http://www.inkscape.org/namespaces/inkscape"
   width="58.85688mm"
   height="53.012897mm"
   viewBox="0 0 58.856881 53.012898"
   version="1.1"
   id="svg8"
   inkscape:version="1.0.2-2 (e86c870879, 2021-01-15)"
   sodipodi:docname="SHPS_logo.svg">
  <defs
     id="defs2">
    <filter
       inkscape:label="3D Marble"
       inkscape:menu="Materials"
       inkscape:menu-tooltip="3D warped marble texture"
       height="1.5"
       y="-0.25"
       width="1.5"
       x="-0.25"
       style="color-interpolation-filters:sRGB"
       id="filter1414">
      <feGaussianBlur
         stdDeviation="4"
         result="result8"
         id="feGaussianBlur1386" />
      <feTurbulence
         seed="50"
         result="result7"
         type="turbulence"
         numOctaves="7"
         baseFrequency="0.01 0.01"
         id="feTurbulence1388" />
      <feColorMatrix
         result="result5"
         values="1 0 0 0 0 0 1 0 0 0 0 0 1 0 0 0 0 0 1.4 0 "
         id="feColorMatrix1390" />
      <feComposite
         result="result6"
         in="result5"
         operator="in"
         in2="result8"
         id="feComposite1392" />
      <feDisplacementMap
         in="result5"
         xChannelSelector="A"
         yChannelSelector="A"
         scale="100"
         result="result4"
         in2="result6"
         id="feDisplacementMap1394" />
      <feFlood
         flood-opacity="1"
         flood-color="rgb(224,224,224)"
         id="feFlood1396" />
      <feComposite
         result="result2"
         operator="atop"
         in2="result4"
         id="feComposite1398" />
      <feComposite
         in="result2"
         operator="atop"
         in2="SourceGraphic"
         result="result9"
         id="feComposite1400" />
      <feBlend
         result="fbSourceGraphic"
         mode="darken"
         in2="result9"
         id="feBlend1402" />
      <feGaussianBlur
         stdDeviation="5"
         in="fbSourceGraphic"
         result="result0"
         id="feGaussianBlur1404" />
      <feSpecularLighting
         in="result0"
         result="result1"
         lighting-color="#ffffff"
         surfaceScale="8"
         specularConstant="0.80000001"
         specularExponent="30"
         id="feSpecularLighting1408">
        <feDistantLight
           elevation="55"
           azimuth="235"
           id="feDistantLight1406" />
      </feSpecularLighting>
      <feComposite
         in2="fbSourceGraphic"
         in="result1"
         result="result2"
         operator="in"
         id="feComposite1410" />
      <feComposite
         in="fbSourceGraphic"
         result="result4"
         operator="arithmetic"
         k2="1"
         k3="1"
         in2="result2"
         id="feComposite1412"
         k1="0"
         k4="0" />
    </filter>
    <filter
       inkscape:label="3D Marble"
       inkscape:menu="Materials"
       inkscape:menu-tooltip="3D warped marble texture"
       height="1.5"
       y="-0.25"
       width="1.5"
       x="-0.25"
       style="color-interpolation-filters:sRGB"
       id="filter1444">
      <feGaussianBlur
         stdDeviation="4"
         result="result8"
         id="feGaussianBlur1416" />
      <feTurbulence
         seed="50"
         result="result7"
         type="turbulence"
         numOctaves="7"
         baseFrequency="0.01 0.01"
         id="feTurbulence1418" />
      <feColorMatrix
         result="result5"
         values="1 0 0 0 0 0 1 0 0 0 0 0 1 0 0 0 0 0 1.4 0 "
         id="feColorMatrix1420" />
      <feComposite
         result="result6"
         in="result5"
         operator="in"
         in2="result8"
         id="feComposite1422" />
      <feDisplacementMap
         in="result5"
         xChannelSelector="A"
         yChannelSelector="A"
         scale="100"
         result="result4"
         in2="result6"
         id="feDisplacementMap1424" />
      <feFlood
         flood-opacity="1"
         flood-color="rgb(224,224,224)"
         id="feFlood1426" />
      <feComposite
         result="result2"
         operator="atop"
         in2="result4"
         id="feComposite1428" />
      <feComposite
         in="result2"
         operator="atop"
         in2="SourceGraphic"
         result="result9"
         id="feComposite1430" />
      <feBlend
         result="fbSourceGraphic"
         mode="darken"
         in2="result9"
         id="feBlend1432" />
      <feGaussianBlur
         stdDeviation="5"
         in="fbSourceGraphic"
         result="result0"
         id="feGaussianBlur1434" />
      <feSpecularLighting
         in="result0"
         result="result1"
         lighting-color="#ffffff"
         surfaceScale="8"
         specularConstant="0.80000001"
         specularExponent="30"
         id="feSpecularLighting1438">
        <feDistantLight
           elevation="55"
           azimuth="235"
           id="feDistantLight1436" />
      </feSpecularLighting>
      <feComposite
         in2="fbSourceGraphic"
         in="result1"
         result="result2"
         operator="in"
         id="feComposite1440" />
      <feComposite
         in="fbSourceGraphic"
         result="result4"
         operator="arithmetic"
         k2="1"
         k3="1"
         in2="result2"
         id="feComposite1442"
         k1="0"
         k4="0" />
    </filter>
    <filter
       inkscape:label="3D Marble"
       inkscape:menu="Materials"
       inkscape:menu-tooltip="3D warped marble texture"
       height="1.5"
       y="-0.25"
       width="1.5"
       x="-0.25"
       style="color-interpolation-filters:sRGB"
       id="filter1474">
      <feGaussianBlur
         stdDeviation="4"
         result="result8"
         id="feGaussianBlur1446" />
      <feTurbulence
         seed="50"
         result="result7"
         type="turbulence"
         numOctaves="7"
         baseFrequency="0.01 0.01"
         id="feTurbulence1448" />
      <feColorMatrix
         result="result5"
         values="1 0 0 0 0 0 1 0 0 0 0 0 1 0 0 0 0 0 1.4 0 "
         id="feColorMatrix1450" />
      <feComposite
         result="result6"
         in="result5"
         operator="in"
         in2="result8"
         id="feComposite1452" />
      <feDisplacementMap
         in="result5"
         xChannelSelector="A"
         yChannelSelector="A"
         scale="100"
         result="result4"
         in2="result6"
         id="feDisplacementMap1454" />
      <feFlood
         flood-opacity="1"
         flood-color="rgb(224,224,224)"
         id="feFlood1456" />
      <feComposite
         result="result2"
         operator="atop"
         in2="result4"
         id="feComposite1458" />
      <feComposite
         in="result2"
         operator="atop"
         in2="SourceGraphic"
         result="result9"
         id="feComposite1460" />
      <feBlend
         result="fbSourceGraphic"
         mode="darken"
         in2="result9"
         id="feBlend1462" />
      <feGaussianBlur
         stdDeviation="5"
         in="fbSourceGraphic"
         result="result0"
         id="feGaussianBlur1464" />
      <feSpecularLighting
         in="result0"
         result="result1"
         lighting-color="#ffffff"
         surfaceScale="8"
         specularConstant="0.80000001"
         specularExponent="30"
         id="feSpecularLighting1468">
        <feDistantLight
           elevation="55"
           azimuth="235"
           id="feDistantLight1466" />
      </feSpecularLighting>
      <feComposite
         in2="fbSourceGraphic"
         in="result1"
         result="result2"
         operator="in"
         id="feComposite1470" />
      <feComposite
         in="fbSourceGraphic"
         result="result4"
         operator="arithmetic"
         k2="1"
         k3="1"
         in2="result2"
         id="feComposite1472"
         k1="0"
         k4="0" />
    </filter>
    <filter
       inkscape:label="3D Marble"
       inkscape:menu="Materials"
       inkscape:menu-tooltip="3D warped marble texture"
       height="1.5"
       y="-0.25"
       width="1.5"
       x="-0.25"
       style="color-interpolation-filters:sRGB"
       id="filter109">
      <feGaussianBlur
         stdDeviation="4"
         result="result8"
         id="feGaussianBlur81" />
      <feTurbulence
         seed="50"
         result="result7"
         type="turbulence"
         numOctaves="7"
         baseFrequency="0.01 0.01"
         id="feTurbulence83" />
      <feColorMatrix
         result="result5"
         values="1 0 0 0 0 0 1 0 0 0 0 0 1 0 0 0 0 0 1.4 0 "
         id="feColorMatrix85" />
      <feComposite
         result="result6"
         in="result5"
         operator="in"
         in2="result8"
         id="feComposite87" />
      <feDisplacementMap
         in="result5"
         xChannelSelector="A"
         yChannelSelector="A"
         scale="100"
         result="result4"
         in2="result6"
         id="feDisplacementMap89" />
      <feFlood
         flood-opacity="1"
         flood-color="rgb(224,224,224)"
         id="feFlood91" />
      <feComposite
         result="result2"
         operator="atop"
         in2="result4"
         id="feComposite93" />
      <feComposite
         in="result2"
         operator="atop"
         in2="SourceGraphic"
         result="result9"
         id="feComposite95" />
      <feBlend
         result="fbSourceGraphic"
         mode="darken"
         in2="result9"
         id="feBlend97" />
      <feGaussianBlur
         stdDeviation="5"
         in="fbSourceGraphic"
         result="result0"
         id="feGaussianBlur99" />
      <feSpecularLighting
         in="result0"
         result="result1"
         lighting-color="#ffffff"
         surfaceScale="8"
         specularConstant="0.80000001"
         specularExponent="30"
         id="feSpecularLighting103">
        <feDistantLight
           elevation="55"
           azimuth="235"
           id="feDistantLight101" />
      </feSpecularLighting>
      <feComposite
         in2="fbSourceGraphic"
         in="result1"
         result="result2"
         operator="in"
         id="feComposite105" />
      <feComposite
         in="fbSourceGraphic"
         result="result4"
         operator="arithmetic"
         k2="1"
         k3="1"
         in2="result2"
         id="feComposite107"
         k1="0"
         k4="0" />
    </filter>
  </defs>
  <sodipodi:namedview
     id="base"
     pagecolor="#ffffff"
     bordercolor="#666666"
     borderopacity="1.0"
     inkscape:pageopacity="0.0"
     inkscape:pageshadow="2"
     inkscape:zoom="3.0091209"
     inkscape:cx="222.32516"
     inkscape:cy="194.36183"
     inkscape:document-units="px"
     inkscape:current-layer="g212"
     inkscape:document-rotation="0"
     showgrid="false"
     inkscape:window-width="1366"
     inkscape:window-height="745"
     inkscape:window-x="-8"
     inkscape:window-y="-8"
     inkscape:window-maximized="1"
     showborder="true"
     inkscape:snap-nodes="true"
     inkscape:snap-smooth-nodes="true"
     inkscape:snap-global="false"
     fit-margin-top="0"
     fit-margin-left="0"
     fit-margin-right="0"
     fit-margin-bottom="0"
     showguides="true"
     inkscape:guide-bbox="true" />
  <metadata
     id="metadata5">
    <rdf:RDF>
      <cc:Work
         rdf:about="">
        <dc:format>image/svg+xml</dc:format>
        <dc:type
           rdf:resource="http://purl.org/dc/dcmitype/StillImage" />
        <dc:title />
      </cc:Work>
    </rdf:RDF>
  </metadata>
  <g
     inkscape:label="Layer 1"
     inkscape:groupmode="layer"
     id="layer1"
     transform="translate(214.17096,84.421724)">
    <g
       id="g191">
      <g
         id="g212"
         transform="matrix(8.6607151,0,0,8.6607151,-996.37181,-1207.9672)">
        <path
           id="path859"
           style="fill:#000000;fill-opacity:1;stroke:#ff0000;stroke-width:0;stroke-linecap:butt;stroke-linejoin:miter;stroke-miterlimit:4;stroke-dasharray:none;stroke-opacity:1"
           d="m 91.247817,129.729 c 1.618937,0 3.237874,0 4.856812,0 0,1.02978 0,2.05955 0,3.08932 0.121396,0.0114 0.271061,-0.0539 0.352054,0.0673 0.218376,0.19553 0.436752,0.39105 0.655127,0.58658 -0.107321,0.19651 -0.214643,0.39302 -0.321965,0.58953 0.05796,0.0808 0.22944,0.16973 0.06515,0.23465 -0.385778,0.33086 -0.843798,0.56942 -1.313563,0.75781 -0.323712,0.10608 -0.657508,0.1749 -0.987061,0.25973 0,0.11578 0,0.23155 0,0.34733 -0.206984,0.0924 -0.420832,0.21132 -0.65472,0.18508 -0.193116,-0.005 -0.391173,0.0108 -0.581247,-0.008 -0.141025,-0.0651 -0.274653,-0.14535 -0.419523,-0.20223 -0.02102,-0.10021 0.04368,-0.26432 -0.03532,-0.32132 -0.29048,-0.0892 -0.594306,-0.12793 -0.875609,-0.2481 -0.351173,-0.12349 -0.711864,-0.237 -1.014872,-0.46054 -0.174363,-0.11364 -0.329792,-0.2533 -0.494636,-0.3799 0.0643,-0.0805 0.223061,-0.1486 0.102258,-0.25351 -0.08825,-0.15295 -0.176491,-0.3059 -0.264736,-0.45885 0.2186,-0.21876 0.437201,-0.43751 0.655801,-0.65626 0.08929,-0.0274 0.300329,0.0671 0.276191,-0.0738 -4.5e-5,-1.01829 -8.9e-5,-2.03658 -1.34e-4,-3.05487 z" />
        <path
           id="path898"
           style="color:#000000;font-style:normal;font-variant:normal;font-weight:normal;font-stretch:normal;font-size:medium;line-height:normal;font-family:sans-serif;font-variant-ligatures:normal;font-variant-position:normal;font-variant-caps:normal;font-variant-numeric:normal;font-variant-alternates:normal;font-variant-east-asian:normal;font-feature-settings:normal;font-variation-settings:normal;text-indent:0;text-align:start;text-decoration:none;text-decoration-line:none;text-decoration-style:solid;text-decoration-color:#000000;letter-spacing:normal;word-spacing:normal;text-transform:none;writing-mode:lr-tb;direction:ltr;text-orientation:mixed;dominant-baseline:auto;baseline-shift:baseline;text-anchor:start;white-space:normal;shape-padding:0;shape-margin:0;inline-size:0;clip-rule:nonzero;display:inline;overflow:visible;visibility:visible;isolation:auto;mix-blend-mode:normal;color-interpolation:sRGB;color-interpolation-filters:linearRGB;solid-color:#000000;solid-opacity:1;vector-effect:none;fill:#999999;fill-opacity:1;fill-rule:nonzero;stroke:none;stroke-width:0.178796;stroke-linecap:butt;stroke-linejoin:miter;stroke-miterlimit:4;stroke-dasharray:none;stroke-dashoffset:0;stroke-opacity:1;color-rendering:auto;image-rendering:auto;shape-rendering:auto;text-rendering:auto;enable-background:accumulate;stop-color:#000000"
           d="m 91.587405,129.94272 v 0.14637 3.44511 l 2.100472,1.01273 2.152487,-1.00818 v -3.57437 z m 0.291144,0.30759 3.670671,0.0189 v 3.09926 l -1.859593,0.8709 -1.811078,-0.87334 z" />
        <path
           id="path20"
           style="fill:#999999;stroke:none;stroke-width:0.0173775;stroke-linecap:butt;stroke-linejoin:miter;stroke-miterlimit:4;stroke-dasharray:none;stroke-opacity:1"
           d="m 92.932164,132.87316 h 1.563439 v 0.34768 h -1.556792 z m 0.260573,-0.40834 h 1.042293 v 0.30421 h -1.037862 z m 0.08686,-0.32623 h 0.868577 v 0.2221 h -0.864885 z m 0.08686,-0.27796 h 0.694861 v 0.17383 h -0.691906 z m 0.04343,-0.25915 h 0.608005 v 0.15502 h -0.605421 z m 0.08686,-0.23396 h 0.434287 v 0.12983 h -0.432439 z m 0.04962,-0.23396 h 0.335055 v 0.12983 H 93.54778 Z" />
        <path
           id="rect873"
           style="fill:none;stroke:#999999;stroke-width:0.0722355;stroke-miterlimit:4;stroke-dasharray:none;stroke-opacity:0.995984"
           d="m 93.483419,135.02959 h 0.460925 l 0.08067,0.38262 h -0.62226 z m 2.90861,-1.83245 c 0,0 -0.08985,-0.065 -0.146539,-0.0804 -0.04834,-0.0131 -0.09571,-0.002 -0.131303,0.0155 0,0 -0.07371,0.0572 -0.08153,0.10303 -0.0078,0.0458 -0.01332,0.083 0.02354,0.13385 0.03687,0.0508 0.159257,0.11631 0.159257,0.11631 l 0.04881,-0.10552 z m 0,0 0.02345,0.0224 0.341152,0.32112 v 0 c -0.128164,0.18458 -0.234186,0.42161 -0.290772,0.61016 l -0.0216,0.0207 v 0 c -0.103131,-0.11249 -0.212571,-0.25411 -0.317344,-0.36237 l -0.01,-0.0103 0.0021,-0.0142 c 0.02725,-0.19723 0.169326,-0.45725 0.272925,-0.58749 z m -0.265105,0.61201 c -0.236217,0.14265 -0.467012,0.23933 -0.733235,0.31324 -0.403892,0.14135 -0.821884,0.25048 -1.205162,0.44437 -0.151245,0.0922 -0.28434,0.26317 -0.244183,0.44999 0.01838,0.1293 0.06595,0.25266 0.08067,0.38262 0.08235,0.066 0.09082,-0.14188 0.148272,-0.18579 0.09324,-0.1283 0.249943,-0.18525 0.387848,-0.25139 0.318806,-0.13058 0.658754,-0.1991 0.978857,-0.3263 0.21047,-0.0664 0.420299,-0.14328 0.60235,-0.27093 0.110072,-0.0679 0.220176,-0.13619 0.323525,-0.21414 -0.107905,-0.12194 -0.225284,-0.23136 -0.338939,-0.34167 z m -5.091186,-0.61201 c 0,0 0.08985,-0.065 0.146539,-0.0804 0.04834,-0.0131 0.09571,-0.002 0.131302,0.0155 0,0 0.0737,0.0572 0.08153,0.10303 0.0078,0.0458 0.01334,0.083 -0.02354,0.13385 -0.03687,0.0508 -0.159257,0.11631 -0.159257,0.11631 l -0.04881,-0.10552 z m 0,0 -0.02345,0.0224 -0.341151,0.32112 v 0 c 0.128164,0.18458 0.234183,0.42161 0.290768,0.61016 l 0.0216,0.0207 v 0 c 0.103132,-0.11249 0.212569,-0.25411 0.317342,-0.36237 l 0.01,-0.0103 -0.0021,-0.0142 c -0.02726,-0.19723 -0.169326,-0.45725 -0.272923,-0.58749 z m 0.265103,0.61201 c 0.236216,0.14265 0.467009,0.23933 0.733233,0.31324 0.403893,0.14135 0.821882,0.25048 1.205163,0.44437 0.151246,0.0922 0.284338,0.26317 0.244182,0.44999 -0.01838,0.1293 -0.06596,0.25266 -0.08067,0.38262 -0.08235,0.066 -0.09081,-0.14188 -0.14827,-0.18579 -0.09324,-0.1283 -0.249944,-0.18525 -0.38785,-0.25139 -0.318806,-0.13058 -0.658755,-0.1991 -0.978858,-0.3263 -0.210467,-0.0664 -0.420294,-0.14328 -0.602345,-0.27093 -0.110072,-0.0679 -0.220178,-0.13619 -0.323526,-0.21414 0.107906,-0.12194 0.225284,-0.23136 0.338939,-0.34167 z" />
        <path
           d="m 92.564568,130.91856 q 0.01266,0.0485 0.0043,0.0817 -0.0085,0.0326 -0.03014,0.0545 -0.02112,0.0211 -0.05118,0.0334 -0.02988,0.013 -0.05964,0.0208 -0.04845,0.0127 -0.08233,0.007 -0.0332,-0.005 -0.0549,-0.0234 -0.02188,-0.0187 -0.03432,-0.0465 -0.01263,-0.0285 -0.01904,-0.0616 l 0.104504,-0.0273 q 0.0047,0.018 0.01025,0.0336 0.0055,0.0156 0.01435,0.0266 0.0086,0.0103 0.02218,0.0142 0.01425,0.004 0.03572,-0.002 0.0263,-0.007 0.03547,-0.0255 0.009,-0.0194 0.0023,-0.045 -0.0058,-0.0222 -0.02604,-0.0346 -0.01956,-0.0127 -0.04689,-0.021 -0.02751,-0.009 -0.0583,-0.0166 -0.03097,-0.008 -0.05956,-0.0214 -0.02877,-0.0139 -0.05156,-0.0361 -0.0221,-0.0223 -0.03186,-0.0597 -0.0076,-0.0291 -0.0067,-0.0567 0.0016,-0.0278 0.01542,-0.0514 0.01361,-0.0243 0.04257,-0.0437 0.02894,-0.0194 0.0767,-0.0319 0.07613,-0.0199 0.122212,0.006 0.04677,0.0263 0.06235,0.10577 l -0.101736,0.0266 q -0.0036,-0.0138 -0.0091,-0.0265 -0.005,-0.0135 -0.01323,-0.0224 -0.0077,-0.01 -0.01905,-0.0135 -0.01082,-0.005 -0.02672,-5.3e-4 -0.02561,0.007 -0.03652,0.0243 -0.01041,0.0168 -0.0035,0.0431 0.0062,0.0236 0.02571,0.0362 0.02026,0.0125 0.0474,0.0202 0.02715,0.008 0.05793,0.0152 0.03061,0.007 0.0592,0.02 0.02841,0.0126 0.05069,0.0356 0.02279,0.0222 0.03309,0.0616 z"
           style="font-style:normal;font-variant:normal;font-weight:bold;font-stretch:normal;font-size:3.43958px;line-height:12.4383px;font-family:'Univers 67 Condensed Bold';-inkscape-font-specification:'Univers 67 Condensed Bold, Bold';font-variant-ligatures:normal;font-variant-caps:normal;font-variant-numeric:normal;font-variant-east-asian:normal;letter-spacing:-0.178162px;fill:#999999;stroke-width:0.0861665"
           id="path62" />
        <path
           d="m 92.887389,130.47344 0.06739,0.36023 q 0.0054,0.0288 0.0016,0.0587 -0.0033,0.029 -0.01948,0.0554 -0.0156,0.0255 -0.04602,0.0458 -0.03055,0.0196 -0.07906,0.0286 -0.08789,0.0165 -0.138674,-0.0177 -0.05008,-0.0343 -0.06351,-0.10607 l -0.06739,-0.36024 0.106167,-0.0199 0.06608,0.3532 q 0.0088,0.0471 0.03022,0.0643 0.02196,0.0163 0.0515,0.0107 0.03515,-0.007 0.04711,-0.0321 0.01197,-0.0255 0.0041,-0.0678 l -0.06608,-0.35319 z"
           style="font-style:normal;font-variant:normal;font-weight:bold;font-stretch:normal;font-size:3.43958px;line-height:12.4383px;font-family:'Univers 67 Condensed Bold';-inkscape-font-specification:'Univers 67 Condensed Bold, Bold';font-variant-ligatures:normal;font-variant-caps:normal;font-variant-numeric:normal;font-variant-east-asian:normal;letter-spacing:-0.178162px;fill:#999999;stroke-width:0.0861665"
           id="path64" />
        <path
           d="m 93.033625,130.97296 -0.05219,-0.51416 0.145174,-0.0148 0.172782,0.34218 0.0014,-1.1e-4 -0.03615,-0.35607 0.100341,-0.0102 0.05219,0.51416 -0.141616,0.0144 -0.178363,-0.36175 -0.0014,1.1e-4 0.03817,0.37601 z"
           style="font-style:normal;font-variant:normal;font-weight:bold;font-stretch:normal;font-size:3.43958px;line-height:12.4383px;font-family:'Univers 67 Condensed Bold';-inkscape-font-specification:'Univers 67 Condensed Bold, Bold';font-variant-ligatures:normal;font-variant-caps:normal;font-variant-numeric:normal;font-variant-east-asian:normal;letter-spacing:-0.178162px;fill:#999999;stroke-width:0.0861665"
           id="path66" />
        <path
           d="m 93.429901,130.40973 0.110869,8.9e-4 0.06404,0.36349 0.0014,2e-5 0.08474,-0.36218 0.12732,0.001 0.07405,0.36358 0.0014,2e-5 0.06758,-0.36233 0.105862,8.9e-4 -0.119001,0.51578 -0.119449,-0.001 -0.0775,-0.37864 -0.0014,-2e-5 -0.09274,0.37714 -0.117306,-0.001 z"
           style="font-style:normal;font-variant:normal;font-weight:bold;font-stretch:normal;font-size:3.43958px;line-height:12.4383px;font-family:'Univers 67 Condensed Bold';-inkscape-font-specification:'Univers 67 Condensed Bold, Bold';font-variant-ligatures:normal;font-variant-caps:normal;font-variant-numeric:normal;font-variant-east-asian:normal;letter-spacing:-0.178162px;fill:#999999;stroke-width:0.0861665"
           id="path68" />
        <path
           d="m 94.274507,130.54582 -0.0014,-1.7e-4 -0.07569,0.21582 0.102266,0.0123 z m -0.256518,0.38941 0.203782,-0.49598 0.141323,0.017 0.07745,0.52988 -0.112916,-0.0136 -0.01474,-0.11713 -0.146296,-0.0176 -0.0428,0.1102 z"
           style="font-style:normal;font-variant:normal;font-weight:bold;font-stretch:normal;font-size:3.43958px;line-height:12.4383px;font-family:'Univers 67 Condensed Bold';-inkscape-font-specification:'Univers 67 Condensed Bold, Bold';font-variant-ligatures:normal;font-variant-caps:normal;font-variant-numeric:normal;font-variant-east-asian:normal;letter-spacing:-0.178162px;fill:#999999;stroke-width:0.0861665"
           id="path70" />
        <path
           d="m 94.557507,131.01276 -0.105694,-0.0222 0.106319,-0.50574 0.195295,0.0411 q 0.0546,0.0115 0.07903,0.0517 0.02513,0.0404 0.01143,0.10554 -0.01016,0.0483 -0.03893,0.0774 -0.02807,0.0292 -0.08093,0.0268 l -3.57e-4,0.001 q 0.0081,0.003 0.02292,0.009 0.01481,0.006 0.02745,0.019 0.01332,0.0131 0.02041,0.035 0.0072,0.0213 7e-6,0.0556 -0.0025,0.0119 -0.0071,0.0336 -0.0039,0.0219 -0.0073,0.0453 -0.0035,0.0234 -0.0055,0.0435 -0.0013,0.0202 5.37e-4,0.0286 l -0.103598,-0.0218 q -0.0056,-0.0253 -0.0011,-0.0507 0.0053,-0.0252 0.01046,-0.0497 0.0047,-0.0224 0.0083,-0.0429 0.0043,-0.0203 3.58e-4,-0.0365 -0.0031,-0.0167 -0.01724,-0.0292 -0.01349,-0.0123 -0.04359,-0.0187 l -0.0273,-0.006 z m 0.06038,-0.28719 0.0469,0.01 q 0.0154,0.003 0.02737,-0.002 0.01198,-0.005 0.02048,-0.014 0.0087,-0.01 0.01354,-0.0228 0.0056,-0.0127 0.0081,-0.0246 0.0077,-0.0364 -0.004,-0.0542 -0.01075,-0.0184 -0.03596,-0.0237 l -0.0469,-0.01 z"
           style="font-style:normal;font-variant:normal;font-weight:bold;font-stretch:normal;font-size:3.43958px;line-height:12.4383px;font-family:'Univers 67 Condensed Bold';-inkscape-font-specification:'Univers 67 Condensed Bold, Bold';font-variant-ligatures:normal;font-variant-caps:normal;font-variant-numeric:normal;font-variant-east-asian:normal;letter-spacing:-0.178162px;fill:#999999;stroke-width:0.0861665"
           id="path72" />
        <path
           d="m 94.95866,130.57285 0.172498,0.0524 q 0.05065,0.0154 0.07716,0.0414 0.0265,0.026 0.03406,0.0627 0.0083,0.0369 5.37e-4,0.0847 -0.0075,0.0471 -0.02498,0.10462 -0.0058,0.0192 -0.01372,0.0452 -0.0077,0.0253 -0.01962,0.0524 -0.01193,0.027 -0.02982,0.0515 -0.01699,0.024 -0.04191,0.0396 -0.02492,0.0156 -0.05851,0.0204 -0.03338,0.004 -0.07719,-0.009 l -0.168388,-0.0511 z m -0.02349,0.4499 0.04997,0.0152 q 0.02327,0.007 0.04035,0.003 0.01797,-0.005 0.03241,-0.0231 0.01443,-0.0181 0.02694,-0.0494 0.01338,-0.0318 0.02751,-0.0784 0.01039,-0.0343 0.01835,-0.0655 0.0087,-0.031 0.0089,-0.0564 3.58e-4,-0.026 -0.0105,-0.0443 -0.01002,-0.0188 -0.03671,-0.0268 l -0.05339,-0.0162 z"
           style="font-style:normal;font-variant:normal;font-weight:bold;font-stretch:normal;font-size:3.43958px;line-height:12.4383px;font-family:'Univers 67 Condensed Bold';-inkscape-font-specification:'Univers 67 Condensed Bold, Bold';font-variant-ligatures:normal;font-variant-caps:normal;font-variant-numeric:normal;font-variant-east-asian:normal;letter-spacing:-0.178162px;fill:#999999;stroke-width:0.0861665"
           id="path74" />
        <path
           d="m 93.625041,135.15229 h -5.36e-4 l -0.02136,0.0967 h 0.04458 z m -0.09008,0.1806 0.06191,-0.22366 h 0.0616 l 0.06068,0.22366 h -0.04922 l -0.01239,-0.0496 h -0.06377 l -0.0127,0.0496 z"
           style="font-style:normal;font-variant:normal;font-weight:normal;font-stretch:normal;font-size:1.73138px;line-height:5.28983px;font-family:'Univers 67 Condensed Bold';-inkscape-font-specification:'Univers 67 Condensed Bold, Normal';font-variant-ligatures:normal;font-variant-caps:normal;font-variant-numeric:normal;font-variant-east-asian:normal;fill:#999999;stroke-width:0.0309671"
           id="path152" />
        <path
           d="m 93.742055,135.10923 h 0.07801 q 0.02291,0 0.03715,0.007 0.01425,0.007 0.02198,0.0217 0.008,0.0142 0.01084,0.035 0.0028,0.0205 0.0028,0.0465 0,0.009 0,0.0204 0,0.0115 -0.0016,0.0242 -0.0016,0.0127 -0.0059,0.0251 -0.004,0.0121 -0.0124,0.0217 -0.0084,0.01 -0.02167,0.0158 -0.01331,0.006 -0.03312,0.006 h -0.07615 z m 0.04675,0.18928 h 0.0226 q 0.01054,0 0.01703,-0.004 0.0068,-0.004 0.01054,-0.0136 0.0037,-0.009 0.005,-0.0238 0.0016,-0.0149 0.0016,-0.0359 0,-0.0155 -5.37e-4,-0.0294 -3.57e-4,-0.0139 -0.0034,-0.0245 -0.0031,-0.0108 -0.0099,-0.017 -0.0065,-0.007 -0.01857,-0.007 h -0.02415 z"
           style="font-style:normal;font-variant:normal;font-weight:normal;font-stretch:normal;font-size:1.73138px;line-height:5.28983px;font-family:'Univers 67 Condensed Bold';-inkscape-font-specification:'Univers 67 Condensed Bold, Normal';font-variant-ligatures:normal;font-variant-caps:normal;font-variant-numeric:normal;font-variant-east-asian:normal;fill:#999999;stroke-width:0.0309671"
           id="path154" />
        <path
           d="m 94.485773,134.79605 q 0.0078,0.0257 0.0038,0.0445 -0.0042,0.0184 -0.01579,0.032 -0.01136,0.013 -0.0278,0.0219 -0.01633,0.009 -0.0327,0.0156 -0.02664,0.0103 -0.0455,0.01 -0.01848,-7.1e-4 -0.03081,-0.009 -0.01243,-0.009 -0.01979,-0.0231 -0.0075,-0.0147 -0.01157,-0.0325 l 0.05745,-0.0223 q 0.0029,0.01 0.0062,0.0177 0.0033,0.008 0.0084,0.0136 0.005,0.005 0.01254,0.006 0.008,0.001 0.01976,-0.004 0.01445,-0.006 0.01923,-0.0165 0.0047,-0.0112 5.36e-4,-0.0248 -0.0036,-0.0117 -0.01501,-0.0172 -0.01105,-0.006 -0.02634,-0.008 -0.01538,-0.003 -0.03258,-0.005 -0.0173,-0.002 -0.03336,-0.008 -0.01617,-0.006 -0.02917,-0.0162 -0.01261,-0.0107 -0.01865,-0.0305 -0.0047,-0.0154 -0.0046,-0.0306 3.58e-4,-0.0154 0.0077,-0.0292 0.0072,-0.0143 0.02286,-0.0269 0.0157,-0.0127 0.04197,-0.0229 0.04185,-0.0162 0.06783,-0.005 0.02635,0.0111 0.03632,0.0537 l -0.05593,0.0217 q -0.0022,-0.007 -0.0055,-0.0139 -0.003,-0.007 -0.0077,-0.0114 -0.0045,-0.005 -0.01077,-0.006 -0.0061,-0.002 -0.01483,0.002 -0.01408,0.005 -0.01983,0.0159 -0.0055,0.01 -0.0013,0.0239 0.0038,0.0125 0.01485,0.018 0.01143,0.005 0.02661,0.008 0.01519,0.002 0.03236,0.004 0.01706,0.002 0.03314,0.007 0.01595,0.005 0.02868,0.016 0.01299,0.0106 0.01936,0.0315 z"
           style="font-style:normal;font-variant:normal;font-weight:normal;font-stretch:normal;font-size:2.21044px;line-height:5.26756px;font-family:'Univers 67 Condensed Bold';-inkscape-font-specification:'Univers 67 Condensed Bold, Normal';font-variant-ligatures:normal;font-variant-caps:normal;font-variant-numeric:normal;font-variant-east-asian:normal;fill:#999999;stroke-width:0.0395216"
           id="path147" />
        <path
           d="m 94.653885,134.51531 0.05721,0.18798 q 0.0046,0.0151 0.0041,0.0317 -1.79e-4,0.0161 -0.0077,0.0321 -0.0072,0.0155 -0.02284,0.0298 -0.01576,0.0139 -0.04201,0.0241 -0.04756,0.0185 -0.07748,0.005 -0.02953,-0.0132 -0.04093,-0.0506 l -0.05721,-0.18799 0.05745,-0.0223 0.05609,0.18432 q 0.0075,0.0246 0.02024,0.0316 0.01302,0.006 0.029,1.8e-4 0.01902,-0.007 0.0242,-0.0225 0.0052,-0.0151 -0.0016,-0.0372 l -0.05609,-0.18432 z"
           style="font-style:normal;font-variant:normal;font-weight:normal;font-stretch:normal;font-size:2.21044px;line-height:5.26756px;font-family:'Univers 67 Condensed Bold';-inkscape-font-specification:'Univers 67 Condensed Bold, Normal';font-variant-ligatures:normal;font-variant-caps:normal;font-variant-numeric:normal;font-variant-east-asian:normal;fill:#999999;stroke-width:0.0395216"
           id="path149" />
        <path
           d="m 94.780216,134.76269 -0.08067,-0.2651 0.09246,-0.0359 0.09786,0.1636 7.16e-4,-3.6e-4 -0.0092,-0.19799 0.08942,-0.0347 0.08067,0.26509 -0.05593,0.0217 -0.06223,-0.20451 -7.15e-4,3.6e-4 0.0094,0.22503 -0.05479,0.0213 -0.112459,-0.18503 -7.16e-4,3.6e-4 0.06224,0.20451 z"
           style="font-style:normal;font-variant:normal;font-weight:normal;font-stretch:normal;font-size:2.21044px;line-height:5.26756px;font-family:'Univers 67 Condensed Bold';-inkscape-font-specification:'Univers 67 Condensed Bold, Normal';font-variant-ligatures:normal;font-variant-caps:normal;font-variant-numeric:normal;font-variant-east-asian:normal;fill:#999999;stroke-width:0.0395216"
           id="path151" />
        <path
           d="m 95.097164,134.63972 -0.08067,-0.26509 0.09246,-0.0359 0.09786,0.16359 7.16e-4,-3.6e-4 -0.0092,-0.19799 0.08941,-0.0347 0.08067,0.2651 -0.05593,0.0217 -0.06224,-0.20451 -7.16e-4,3.6e-4 0.0094,0.22503 -0.05479,0.0213 -0.112459,-0.18502 -7.15e-4,3.5e-4 0.06224,0.20451 z"
           style="font-style:normal;font-variant:normal;font-weight:normal;font-stretch:normal;font-size:2.21044px;line-height:5.26756px;font-family:'Univers 67 Condensed Bold';-inkscape-font-specification:'Univers 67 Condensed Bold, Normal';font-variant-ligatures:normal;font-variant-caps:normal;font-variant-numeric:normal;font-variant-east-asian:normal;fill:#999999;stroke-width:0.0395216"
           id="path153" />
        <path
           d="m 95.520262,134.17918 0.05721,0.18799 q 0.0046,0.015 0.0041,0.0317 -1.78e-4,0.0161 -0.0077,0.0321 -0.0072,0.0155 -0.02284,0.0298 -0.01576,0.0139 -0.04202,0.0241 -0.04756,0.0185 -0.07747,0.005 -0.02953,-0.0132 -0.04093,-0.0506 l -0.05721,-0.18799 0.05745,-0.0223 0.05609,0.18431 q 0.0075,0.0246 0.02024,0.0316 0.01304,0.006 0.029,1.8e-4 0.01902,-0.007 0.0242,-0.0225 0.0052,-0.0151 -0.0016,-0.0372 l -0.05609,-0.18431 z"
           style="font-style:normal;font-variant:normal;font-weight:normal;font-stretch:normal;font-size:2.21044px;line-height:5.26756px;font-family:'Univers 67 Condensed Bold';-inkscape-font-specification:'Univers 67 Condensed Bold, Normal';font-variant-ligatures:normal;font-variant-caps:normal;font-variant-numeric:normal;font-variant-east-asian:normal;fill:#999999;stroke-width:0.0395216"
           id="path155" />
        <path
           d="m 95.646589,134.42656 -0.08067,-0.26509 0.09246,-0.0359 0.09786,0.16359 7.15e-4,-3.5e-4 -0.0092,-0.198 0.08942,-0.0347 0.08067,0.2651 -0.05593,0.0217 -0.06224,-0.20451 -7.16e-4,3.5e-4 0.0094,0.22503 -0.05479,0.0213 -0.112459,-0.18502 -7.15e-4,3.5e-4 0.06224,0.20451 z"
           style="font-style:normal;font-variant:normal;font-weight:normal;font-stretch:normal;font-size:2.21044px;line-height:5.26756px;font-family:'Univers 67 Condensed Bold';-inkscape-font-specification:'Univers 67 Condensed Bold, Normal';font-variant-ligatures:normal;font-variant-caps:normal;font-variant-numeric:normal;font-variant-east-asian:normal;fill:#999999;stroke-width:0.0395216"
           id="path157" />
        <path
           d="m 91.389992,134.30177 0.08333,-0.26197 0.05618,0.0206 -0.06948,0.21843 0.08409,0.0309 -0.01385,0.0435 z"
           style="font-style:normal;font-variant:normal;font-weight:normal;font-stretch:normal;font-size:2.17177px;line-height:5.17534px;font-family:'Univers 67 Condensed Bold';-inkscape-font-specification:'Univers 67 Condensed Bold, Normal';font-variant-ligatures:normal;font-variant-caps:normal;font-variant-numeric:normal;font-variant-east-asian:normal;fill:#999999;stroke-width:0.0388305"
           id="path130" />
        <path
           d="m 91.709917,134.18305 -6.79e-4,-1.8e-4 -0.06168,0.10378 0.05358,0.0197 z m -0.175562,0.17176 0.157747,-0.23463 0.07404,0.0272 -0.0104,0.28876 -0.05916,-0.0217 0.0036,-0.0635 -0.07665,-0.0282 -0.03371,0.0524 z"
           style="font-style:normal;font-variant:normal;font-weight:normal;font-stretch:normal;font-size:2.17177px;line-height:5.17534px;font-family:'Univers 67 Condensed Bold';-inkscape-font-specification:'Univers 67 Condensed Bold, Normal';font-variant-ligatures:normal;font-variant-caps:normal;font-variant-numeric:normal;font-variant-east-asian:normal;fill:#999999;stroke-width:0.0388305"
           id="path132" />
        <path
           d="m 91.7829,134.44612 0.08333,-0.26197 0.09972,0.0366 q 0.016,0.006 0.02921,0.014 0.0137,0.008 0.0217,0.0193 0.0085,0.0112 0.01016,0.0268 0.0022,0.0154 -0.0045,0.0364 -0.0073,0.0229 -0.02365,0.0339 -0.016,0.0111 -0.04046,0.007 l -2.15e-4,7.1e-4 q 0.0142,0.008 0.02213,0.0166 0.0079,0.009 0.01075,0.0197 0.0032,0.0109 0.0018,0.023 -0.0013,0.012 -0.0056,0.0255 -0.0053,0.0167 -0.01347,0.0267 -0.0082,0.01 -0.01802,0.0149 -0.0095,0.005 -0.02019,0.006 -0.01031,10e-4 -0.02031,-1.7e-4 -0.01,-0.001 -0.01879,-0.004 -0.0083,-0.003 -0.01424,-0.005 z m 0.105466,-0.13429 0.03758,0.0138 q 0.0045,0.002 0.01016,0.002 0.0058,9e-5 0.01141,-0.002 0.0057,-0.002 0.01042,-0.008 0.0051,-0.005 0.0081,-0.0149 0.0046,-0.0145 -0.0017,-0.0274 -0.0059,-0.0127 -0.02007,-0.0179 l -0.0346,-0.0127 z m -0.03647,0.11466 0.03125,0.0115 q 0.0045,0.002 0.0109,0.004 0.0069,0.002 0.01403,3.6e-4 0.0075,-0.001 0.01426,-0.007 0.0069,-0.006 0.01128,-0.0198 0.0055,-0.0174 4.65e-4,-0.0302 -0.0046,-0.013 -0.02579,-0.0208 l -0.03274,-0.012 z"
           style="font-style:normal;font-variant:normal;font-weight:normal;font-stretch:normal;font-size:2.17177px;line-height:5.17534px;font-family:'Univers 67 Condensed Bold';-inkscape-font-specification:'Univers 67 Condensed Bold, Normal';font-variant-ligatures:normal;font-variant-caps:normal;font-variant-numeric:normal;font-variant-east-asian:normal;fill:#999999;stroke-width:0.0388305"
           id="path134" />
        <path
           d="m 92.098149,134.5668 q -0.0346,-0.0127 -0.05,-0.0309 -0.01528,-0.0186 -0.01784,-0.0406 -0.0024,-0.0224 0.0038,-0.0472 0.0062,-0.0249 0.01438,-0.0506 0.0083,-0.0261 0.01758,-0.0499 0.0093,-0.0237 0.02377,-0.0395 0.01454,-0.0157 0.03711,-0.02 0.02267,-0.005 0.05727,0.008 0.0346,0.0127 0.04989,0.0313 0.01538,0.0182 0.01795,0.0402 0.0026,0.022 -0.0037,0.0469 -0.0062,0.0249 -0.01449,0.051 -0.0082,0.0258 -0.01746,0.0495 -0.0093,0.0237 -0.02389,0.0399 -0.01454,0.0157 -0.03723,0.0204 -0.02255,0.004 -0.05716,-0.008 z m 0.01245,-0.0392 q 0.01191,0.004 0.02071,0.002 0.0089,-0.003 0.01633,-0.0135 0.0074,-0.0103 0.01429,-0.028 0.0071,-0.0181 0.01504,-0.0431 0.008,-0.025 0.01254,-0.0436 0.0047,-0.019 0.0048,-0.0319 -2.3e-5,-0.013 -0.0054,-0.021 -0.0052,-0.008 -0.01712,-0.0128 -0.01191,-0.004 -0.02083,-0.001 -0.0088,0.003 -0.0162,0.0131 -0.0074,0.0103 -0.01442,0.0283 -0.007,0.0177 -0.01493,0.0427 -0.008,0.025 -0.01266,0.044 -0.0046,0.0186 -0.0046,0.0315 2.5e-5,0.013 0.0053,0.0214 0.0053,0.008 0.01724,0.0124 z"
           style="font-style:normal;font-variant:normal;font-weight:normal;font-stretch:normal;font-size:2.17177px;line-height:5.17534px;font-family:'Univers 67 Condensed Bold';-inkscape-font-specification:'Univers 67 Condensed Bold, Normal';font-variant-ligatures:normal;font-variant-caps:normal;font-variant-numeric:normal;font-variant-east-asian:normal;fill:#999999;stroke-width:0.0388305"
           id="path136" />
        <path
           d="m 92.291895,134.63312 -0.05618,-0.0206 0.08333,-0.26197 0.103807,0.0381 q 0.02902,0.0107 0.04023,0.0342 0.01159,0.0237 8.95e-4,0.0574 -0.008,0.025 -0.02504,0.0382 -0.01671,0.0133 -0.04525,0.008 l -1.79e-4,7.2e-4 q 0.0043,0.002 0.01197,0.007 0.0077,0.005 0.01392,0.0124 0.0066,0.008 0.0093,0.0204 0.0028,0.012 -0.0028,0.0298 -0.002,0.006 -0.0055,0.0174 -0.0032,0.0114 -0.0062,0.0237 -0.0031,0.0122 -0.0052,0.0228 -0.0016,0.0107 -0.0011,0.0154 l -0.05507,-0.0202 q -0.0018,-0.014 0.002,-0.0272 0.0042,-0.0131 0.0082,-0.0258 0.0037,-0.0116 0.0067,-0.0223 0.0033,-0.0105 0.0021,-0.0195 -7.16e-4,-0.009 -0.0079,-0.0171 -0.0067,-0.008 -0.02269,-0.0136 l -0.01451,-0.005 z m 0.04732,-0.14876 0.02493,0.009 q 0.0082,0.003 0.01492,0.001 0.0067,-0.002 0.01182,-0.006 0.0052,-0.005 0.0085,-0.011 0.0037,-0.006 0.0057,-0.0125 0.006,-0.0189 5.37e-4,-0.0293 -0.0049,-0.0107 -0.01829,-0.0156 l -0.02493,-0.009 z"
           style="font-style:normal;font-variant:normal;font-weight:normal;font-stretch:normal;font-size:2.17177px;line-height:5.17534px;font-family:'Univers 67 Condensed Bold';-inkscape-font-specification:'Univers 67 Condensed Bold, Normal';font-variant-ligatures:normal;font-variant-caps:normal;font-variant-numeric:normal;font-variant-east-asian:normal;fill:#999999;stroke-width:0.0388305"
           id="path138" />
        <path
           d="m 92.598798,134.50962 -7.16e-4,-1.8e-4 -0.06168,0.10377 0.05358,0.0197 z m -0.175562,0.17175 0.157746,-0.23463 0.07404,0.0272 -0.01041,0.28877 -0.05916,-0.0217 0.0036,-0.0635 -0.07665,-0.0282 -0.03373,0.0524 z"
           style="font-style:normal;font-variant:normal;font-weight:normal;font-stretch:normal;font-size:2.17177px;line-height:5.17534px;font-family:'Univers 67 Condensed Bold';-inkscape-font-specification:'Univers 67 Condensed Bold, Normal';font-variant-ligatures:normal;font-variant-caps:normal;font-variant-numeric:normal;font-variant-east-asian:normal;fill:#999999;stroke-width:0.0388305"
           id="path140" />
        <path
           d="m 92.892034,134.56102 -0.01384,0.0435 -0.06251,-0.023 -0.06948,0.21843 -0.05618,-0.0206 0.06948,-0.21843 -0.06251,-0.023 0.01384,-0.0435 z"
           style="font-style:normal;font-variant:normal;font-weight:normal;font-stretch:normal;font-size:2.17177px;line-height:5.17534px;font-family:'Univers 67 Condensed Bold';-inkscape-font-specification:'Univers 67 Condensed Bold, Normal';font-variant-ligatures:normal;font-variant-caps:normal;font-variant-numeric:normal;font-variant-east-asian:normal;fill:#999999;stroke-width:0.0388305"
           id="path142" />
        <path
           d="m 92.834749,134.83256 0.08333,-0.26197 0.146594,0.0538 -0.01281,0.0403 -0.09042,-0.0332 -0.02054,0.0646 0.08335,0.0306 -0.01282,0.0403 -0.08335,-0.0306 -0.02435,0.0766 0.09339,0.0343 -0.01282,0.0403 z"
           style="font-style:normal;font-variant:normal;font-weight:normal;font-stretch:normal;font-size:2.17177px;line-height:5.17534px;font-family:'Univers 67 Condensed Bold';-inkscape-font-specification:'Univers 67 Condensed Bold, Normal';font-variant-ligatures:normal;font-variant-caps:normal;font-variant-numeric:normal;font-variant-east-asian:normal;fill:#999999;stroke-width:0.0388305"
           id="path144" />
        <path
           d="m 92.211407,133.37249 0.119998,-0.24232 0.08175,0.0403 -0.04359,0.18353 7.15e-4,3.6e-4 0.121975,-0.1449 0.07906,0.039 -0.119996,0.24233 -0.04945,-0.0244 0.09257,-0.18695 -5.37e-4,-3.5e-4 -0.139336,0.1639 -0.04845,-0.0239 0.04817,-0.20884 -7.15e-4,-3.5e-4 -0.09257,0.18694 z"
           style="font-style:normal;font-variant:normal;font-weight:normal;font-stretch:normal;font-size:2.15278px;line-height:5.13003px;font-family:'Univers 67 Condensed Bold';-inkscape-font-specification:'Univers 67 Condensed Bold, Normal';font-variant-ligatures:normal;font-variant-caps:normal;font-variant-numeric:normal;font-variant-east-asian:normal;white-space:pre;fill:#999999;stroke-width:0.0374795"
           id="path115" />
        <path
           d="m 92.668944,133.35457 -5.37e-4,-3.5e-4 -0.07507,0.0933 0.04845,0.0239 z m -0.194793,0.14743 0.187281,-0.20917 0.06695,0.033 -0.05406,0.27482 -0.05349,-0.0264 0.01313,-0.0603 -0.0693,-0.0342 -0.04039,0.0469 z"
           style="font-style:normal;font-variant:normal;font-weight:normal;font-stretch:normal;font-size:2.15278px;line-height:5.13003px;font-family:'Univers 67 Condensed Bold';-inkscape-font-specification:'Univers 67 Condensed Bold, Normal';font-variant-ligatures:normal;font-variant-caps:normal;font-variant-numeric:normal;font-variant-east-asian:normal;white-space:pre;fill:#999999;stroke-width:0.0374795"
           id="path117" />
        <path
           d="m 92.942676,133.43145 -0.01995,0.0403 -0.05652,-0.0279 -0.100053,0.20205 -0.0508,-0.025 0.100054,-0.20205 -0.05652,-0.0279 0.01994,-0.0403 z"
           style="font-style:normal;font-variant:normal;font-weight:normal;font-stretch:normal;font-size:2.15278px;line-height:5.13003px;font-family:'Univers 67 Condensed Bold';-inkscape-font-specification:'Univers 67 Condensed Bold, Normal';font-variant-ligatures:normal;font-variant-caps:normal;font-variant-numeric:normal;font-variant-east-asian:normal;white-space:pre;fill:#999999;stroke-width:0.0374795"
           id="path119" />
        <path
           d="m 93.028875,133.59461 0.04803,-0.097 0.0508,0.025 -0.119997,0.24232 -0.0508,-0.025 0.05352,-0.10808 -0.0582,-0.0287 -0.05352,0.10807 -0.0508,-0.025 0.119996,-0.24232 0.0508,0.025 -0.04803,0.097 z"
           style="font-style:normal;font-variant:normal;font-weight:normal;font-stretch:normal;font-size:2.15278px;line-height:5.13003px;font-family:'Univers 67 Condensed Bold';-inkscape-font-specification:'Univers 67 Condensed Bold, Normal';font-variant-ligatures:normal;font-variant-caps:normal;font-variant-numeric:normal;font-variant-east-asian:normal;white-space:pre;fill:#999999;stroke-width:0.0374795"
           id="path121" />
        <path
           d="m 93.235236,133.79486 q -0.01163,0.0235 -0.02635,0.0338 -0.01454,0.01 -0.03065,0.0112 -0.0156,0.001 -0.03174,-0.004 -0.01631,-0.005 -0.03077,-0.0122 -0.02355,-0.0116 -0.03519,-0.0253 -0.0113,-0.0135 -0.01374,-0.0281 -0.0023,-0.0149 0.0024,-0.0301 0.0048,-0.0156 0.01356,-0.0309 l 0.0508,0.025 q -0.0043,0.009 -0.0075,0.0168 -0.0032,0.008 -0.0035,0.0154 -1.38e-4,0.007 0.0039,0.0132 0.0044,0.006 0.01483,0.0115 0.01279,0.006 0.02283,0.002 0.01021,-0.005 0.01637,-0.017 0.0053,-0.0107 0.0016,-0.0226 -0.0034,-0.0117 -0.01136,-0.0244 -0.0078,-0.013 -0.01742,-0.0265 -0.0095,-0.0139 -0.01626,-0.0289 -0.0066,-0.0154 -0.008,-0.0319 -0.0011,-0.0164 0.0079,-0.0345 0.007,-0.0141 0.01683,-0.0247 0.01018,-0.0104 0.02375,-0.015 0.01374,-0.005 0.03187,-0.003 0.01813,0.002 0.04135,0.0137 0.03701,0.0182 0.04619,0.0445 0.0095,0.0264 -0.01161,0.0632 l -0.04945,-0.0244 q 0.0033,-0.007 0.0055,-0.0136 0.0027,-0.007 0.0024,-0.0134 3.58e-4,-0.007 -0.0029,-0.0119 -0.0027,-0.006 -0.01044,-0.009 -0.01245,-0.006 -0.02284,-0.003 -0.0099,0.003 -0.0162,0.0158 -0.0057,0.0114 -0.0022,0.0231 0.0037,0.0119 0.01186,0.0242 0.0081,0.0124 0.01774,0.0259 0.0098,0.0132 0.01658,0.0282 0.007,0.0147 0.0079,0.0314 0.0014,0.0166 -0.008,0.0357 z"
           style="font-style:normal;font-variant:normal;font-weight:normal;font-stretch:normal;font-size:2.15278px;line-height:5.13003px;font-family:'Univers 67 Condensed Bold';-inkscape-font-specification:'Univers 67 Condensed Bold, Normal';font-variant-ligatures:normal;font-variant-caps:normal;font-variant-numeric:normal;font-variant-east-asian:normal;white-space:pre;fill:#999999;stroke-width:0.0374795"
           id="path123" />
        <g
           aria-label="SCIENCE"
           transform="matrix(-0.05150128,-0.10980748,0.07665651,-0.03840603,89.171651,149.56424)"
           id="text141"
           style="font-style:normal;font-variant:normal;font-weight:bold;font-stretch:normal;font-size:2.64583px;line-height:6.30502px;font-family:sans-serif;-inkscape-font-specification:'sans-serif, Bold';font-variant-ligatures:normal;font-variant-caps:normal;font-variant-numeric:normal;font-variant-east-asian:normal;white-space:pre;shape-inside:url(#path898);fill:#999999;stroke-width:0.264583">
          <path
             d="m 98.029243,132.70933 q -0.28422,0 -0.462503,-0.24159 -0.176992,-0.24029 -0.176992,-0.6537 0,-0.23901 0.04134,-0.41729 0.04263,-0.17699 0.107228,-0.33202 h 0.461212 v 0.0543 q -0.122732,0.15374 -0.188619,0.34365 -0.06589,0.1912 -0.06589,0.3669 0,0.0452 0.0078,0.11885 0.0078,0.0736 0.02584,0.12015 0.02325,0.0568 0.05814,0.093 0.03488,0.0375 0.103353,0.0375 0.0633,0 0.10852,-0.0543 0.04651,-0.053 0.07106,-0.15632 0.02584,-0.10852 0.0478,-0.22996 0.02325,-0.12014 0.05814,-0.22608 0.07881,-0.24288 0.213165,-0.35011 0.13565,-0.10593 0.335896,-0.10593 0.268717,0 0.437957,0.24029 0.170532,0.24159 0.170532,0.62012 0,0.18991 -0.03746,0.37465 -0.03617,0.18604 -0.09173,0.32169 h -0.443125 v -0.053 q 0.09302,-0.11627 0.15503,-0.28551 0.0633,-0.16795 0.0633,-0.34365 0,-0.062 -0.009,-0.12403 -0.0078,-0.0607 -0.03101,-0.11756 -0.01938,-0.0504 -0.05943,-0.0866 -0.03876,-0.0362 -0.08914,-0.0362 -0.07622,0 -0.117563,0.0581 -0.04005,0.0581 -0.07364,0.21962 -0.02196,0.10594 -0.04263,0.20283 -0.02067,0.0982 -0.05684,0.21058 -0.07235,0.22092 -0.197662,0.32556 -0.124024,0.10594 -0.322978,0.10594 z"
             id="path156" />
          <path
             d="m 97.387165,133.91856 q 0,-0.21446 0.0633,-0.39662 0.0633,-0.18087 0.188619,-0.31135 0.125315,-0.13048 0.312642,-0.20283 0.187327,-0.0711 0.432789,-0.0711 0.228668,0 0.414703,0.0685 0.186035,0.0685 0.319102,0.19895 0.127899,0.12532 0.197662,0.31006 0.06976,0.18603 0.06976,0.40566 0,0.12144 -0.01421,0.21833 -0.01292,0.0982 -0.03488,0.18087 -0.02455,0.0866 -0.05555,0.15632 -0.02971,0.0711 -0.05555,0.12402 h -0.466379 v -0.0568 q 0.03101,-0.0362 0.07364,-0.0917 0.04263,-0.0543 0.08397,-0.12402 0.04134,-0.0711 0.06976,-0.15374 0.02842,-0.0827 0.02842,-0.17699 0,-0.10464 -0.03359,-0.19895 -0.0323,-0.0943 -0.10852,-0.17441 -0.07364,-0.0762 -0.195078,-0.12402 -0.12144,-0.0465 -0.294555,-0.0465 -0.180868,0 -0.302307,0.0504 -0.12144,0.0517 -0.191203,0.12919 -0.07106,0.0788 -0.102061,0.1757 -0.02971,0.0969 -0.02971,0.1912 0,0.0904 0.02713,0.17829 0.02713,0.0891 0.07364,0.16407 0.03747,0.0633 0.0801,0.11756 0.04263,0.0543 0.07364,0.0891 v 0.0517 h -0.45992 q -0.0323,-0.0724 -0.06072,-0.13823 -0.02842,-0.0659 -0.04909,-0.13824 -0.02713,-0.0943 -0.04134,-0.17699 -0.01421,-0.0827 -0.01421,-0.22737 z"
             id="path158" />
          <path
             d="m 97.42463,136.0037 v -1.12655 h 0.341064 v 0.31523 h 1.241525 v -0.31523 h 0.341064 v 1.12655 h -0.341064 v -0.31523 h -1.241525 v 0.31523 z"
             id="path160" />
          <path
             d="m 97.42463,137.79945 v -1.39139 h 1.923653 v 1.39139 h -0.37207 v -0.89788 h -0.332021 v 0.83328 h -0.37207 v -0.83328 H 97.7967 v 0.89788 z"
             id="path162" />
          <path
             d="m 97.42463,139.96469 v -0.47801 l 1.320331,-0.81648 H 97.42463 v -0.45475 h 1.923653 v 0.59298 l -1.101999,0.70151 h 1.101999 v 0.45475 z"
             id="path164" />
          <path
             d="m 97.387165,141.32507 q 0,-0.21446 0.0633,-0.39662 0.0633,-0.18086 0.188619,-0.31135 0.125315,-0.13048 0.312642,-0.20282 0.187327,-0.0711 0.432789,-0.0711 0.228668,0 0.414703,0.0685 0.186035,0.0685 0.319102,0.19896 0.127899,0.12531 0.197662,0.31005 0.06976,0.18604 0.06976,0.40566 0,0.12144 -0.01421,0.21834 -0.01292,0.0982 -0.03488,0.18086 -0.02455,0.0866 -0.05555,0.15632 -0.02971,0.0711 -0.05555,0.12403 h -0.466379 v -0.0568 q 0.03101,-0.0362 0.07364,-0.0917 0.04263,-0.0543 0.08397,-0.12403 0.04134,-0.071 0.06976,-0.15373 0.02842,-0.0827 0.02842,-0.17699 0,-0.10465 -0.03359,-0.19896 -0.0323,-0.0943 -0.10852,-0.17441 -0.07364,-0.0762 -0.195078,-0.12402 -0.12144,-0.0465 -0.294555,-0.0465 -0.180868,0 -0.302307,0.0504 -0.12144,0.0517 -0.191203,0.12919 -0.07106,0.0788 -0.102061,0.1757 -0.02971,0.0969 -0.02971,0.1912 0,0.0904 0.02713,0.17828 0.02713,0.0891 0.07364,0.16408 0.03747,0.0633 0.0801,0.11756 0.04263,0.0543 0.07364,0.0891 v 0.0517 h -0.45992 q -0.0323,-0.0724 -0.06072,-0.13824 -0.02842,-0.0659 -0.04909,-0.13823 -0.02713,-0.0943 -0.04134,-0.17699 -0.01421,-0.0827 -0.01421,-0.22738 z"
             id="path166" />
          <path
             d="m 97.42463,143.76161 v -1.39138 h 1.923653 v 1.39138 h -0.37207 v -0.89788 h -0.332021 v 0.83329 h -0.37207 v -0.83329 H 97.7967 v 0.89788 z"
             id="path168" />
        </g>
      </g>
    </g>
  </g>
</svg>
