<?xml version="1.0" encoding="UTF-8" standalone="no"?>
<!-- Created with Inkscape (http://www.inkscape.org/) -->

<svg
   width="210mm"
   height="297mm"
   viewBox="0 0 793.70081 1122.5197"
   version="1.1"
   id="svg5"
   inkscape:version="1.1.1 (3bf5ae0d25, 2021-09-20)"
   sodipodi:docname="Template_Squere_images.svg"
   xmlns:inkscape="http://www.inkscape.org/namespaces/inkscape"
   xmlns:sodipodi="http://sodipodi.sourceforge.net/DTD/sodipodi-0.dtd"
   xmlns="http://www.w3.org/2000/svg"
   xmlns:svg="http://www.w3.org/2000/svg">
  <sodipodi:namedview
     id="namedview7"
     pagecolor="#505050"
     bordercolor="#eeeeee"
     borderopacity="1"
     inkscape:pageshadow="0"
     inkscape:pageopacity="0"
     inkscape:pagecheckerboard="0"
     inkscape:document-units="mm"
     showgrid="false"
     inkscape:object-paths="true"
     inkscape:snap-intersection-paths="false"
     inkscape:snap-smooth-nodes="false"
     inkscape:snap-midpoints="false"
     inkscape:snap-object-midpoints="true"
     inkscape:object-nodes="false"
     inkscape:snap-others="false"
     inkscape:zoom="1.0859962"
     inkscape:cx="454.42149"
     inkscape:cy="404.69756"
     inkscape:window-width="1920"
     inkscape:window-height="1051"
     inkscape:window-x="-9"
     inkscape:window-y="-9"
     inkscape:window-maximized="1"
     inkscape:current-layer="layer1" />
  <defs
     id="defs2" />
  <g
     inkscape:label="Layer 1"
     inkscape:groupmode="layer"
     id="layer1">
    <path
       id="path1711"
       style="fill:#2b313a;stroke:none;stroke-width:0;stroke-linecap:round;stroke-linejoin:round;stroke-miterlimit:4;stroke-dasharray:none;fill-opacity:1"
       d="m 395.77638,468.77864 a 91.405038,91.405038 0 0 1 75.27104,105.09186 91.405038,91.405038 0 0 1 -105.09023,75.27125 91.405038,91.405038 0 0 1 -50.20677,-26.06011 118.82634,118.82634 0 0 0 30.88879,-62.03124 118.82634,118.82634 0 0 0 -14.72885,-79.17043 91.405038,91.405038 0 0 1 63.86602,-13.10133 z" />
    <circle
       style="fill:#000814;stroke:none;stroke-width:0;stroke-linecap:round;stroke-linejoin:round;stroke-miterlimit:4;stroke-dasharray:none;fill-opacity:1"
       id="circle1715"
       cx="-282.25662"
       cy="498.57056"
       r="132.51424"
       transform="matrix(-0.98660673,-0.16311702,-0.16311702,0.98660673,0,0)" />
    <path
       id="path1610"
       style="fill:#000814;stroke:none;stroke-width:0;stroke-linecap:round;stroke-linejoin:round;stroke-miterlimit:4;stroke-dasharray:none;fill-opacity:1"
       d="m 395.27043,203.39551 a 91.405038,91.405038 0 0 0 -88.247,94.45897 91.405038,91.405038 0 0 0 94.45733,88.24699 91.405038,91.405038 0 0 0 53.15887,-19.33868 118.82634,118.82634 0 0 1 -22.59539,-65.50909 118.82634,118.82634 0 0 1 24.85771,-76.59628 91.405038,91.405038 0 0 0 -61.63152,-21.26191 z" />
    <path
       id="circle1351"
       style="fill:#2b313a;stroke:none;stroke-width:0;stroke-linecap:round;stroke-linejoin:round;stroke-miterlimit:4;stroke-dasharray:none;fill-opacity:1"
       d="M 251.38086 234.32422 A 72.651999 72.651999 0 0 0 181.24023 309.40234 A 72.651999 72.651999 0 0 0 256.31836 379.54492 A 72.651999 72.651999 0 0 0 309.82812 353.2207 A 108.97808 108.97808 0 0 1 292.62109 298.45117 A 108.97808 108.97808 0 0 1 301.31055 252.10352 A 72.651999 72.651999 0 0 0 251.38086 234.32422 z " />
    <path
       id="rect846"
       style="fill:#aa0000;stroke:none;stroke-width:0;stroke-linecap:round;stroke-linejoin:round;stroke-miterlimit:4;stroke-dasharray:none"
       d="M 132.17578 265.6543 L 132.17578 598.6543 L 632.17578 598.6543 L 632.17578 430.60742 A 141.67126 141.67126 0 0 1 588.08008 439.28125 A 141.67126 141.67126 0 0 1 441.67773 302.50391 A 141.67126 141.67126 0 0 1 445.4668 265.6543 L 132.17578 265.6543 z " />
    <circle
       style="fill:#000000;stroke:none;stroke-width:0;stroke-linecap:round;stroke-linejoin:round;stroke-miterlimit:4;stroke-dasharray:none;fill-opacity:1"
       id="circle1461"
       cx="572.81689"
       cy="317.33521"
       r="132.51424"
       transform="rotate(-1.9469325)" />
  </g>
</svg>
